<svg xmlns="http://www.w3.org/2000/svg" viewBox="0 0 500 500"><g id="freepik--background-complete--inject-20"><polygon points="49.44 295.41 99.58 295.17 149.72 295.08 250 294.92 350.28 295.08 400.42 295.17 450.56 295.41 400.42 295.66 350.28 295.75 250 295.91 149.72 295.75 99.58 295.66 49.44 295.41" style="fill:#263238"></polygon><rect x="278.09" y="111.77" width="166.85" height="7.32" style="fill:#ebebeb"></rect><rect x="287.44" y="119.09" width="7.32" height="24.2" style="fill:#ebebeb"></rect><rect x="287.44" y="119.09" width="7.32" height="7.48" style="fill:#dbdbdb"></rect><rect x="428.27" y="119.09" width="7.32" height="24.2" style="fill:#ebebeb"></rect><rect x="428.27" y="119.09" width="7.32" height="7.48" style="fill:#dbdbdb"></rect><rect x="282.84" y="82.58" width="46.63" height="11.74" transform="translate(394.61 -217.7) rotate(90)" style="fill:#c7c7c7"></rect><rect x="304.32" y="58.6" width="5.12" height="13.21" transform="translate(372.09 -241.68) rotate(90)" style="fill:#dbdbdb"></rect><rect x="305.2" y="69.41" width="1.9" height="11.74" transform="translate(381.44 -230.87) rotate(90)" style="fill:#dbdbdb"></rect><rect x="304.32" y="96.49" width="5.12" height="13.21" transform="translate(409.98 -203.8) rotate(90)" style="fill:#dbdbdb"></rect><rect x="288.93" y="80.47" width="54.4" height="8.21" transform="translate(400.7 -231.56) rotate(90)" style="fill:#dbdbdb"></rect><rect x="305.63" y="70.48" width="20.92" height="4.93" transform="translate(389.04 -243.15) rotate(90)" style="fill:#ebebeb"></rect><rect x="329.19" y="85.64" width="54.4" height="8.21" transform="translate(166 -224.62) rotate(44.67)" style="fill:#c7c7c7"></rect><rect x="348.78" y="90.05" width="20.92" height="4.93" transform="translate(168.78 -225.82) rotate(44.67)" style="fill:#dbdbdb"></rect><rect x="306.54" y="84.15" width="41.32" height="13.94" transform="translate(418.31 -236.08) rotate(90)" style="fill:#a6a6a6"></rect><rect x="325.27" y="98.5" width="3.85" height="13.94" transform="translate(432.67 -221.72) rotate(90)" style="fill:#c7c7c7"></rect><rect x="326.45" y="93.3" width="1.49" height="13.94" transform="translate(427.47 -226.92) rotate(90)" style="fill:#c7c7c7"></rect><polygon points="418.45 93.67 417.4 96.44 416.76 98.13 415.71 100.91 411.61 111.77 389.44 111.77 385.33 100.91 384.28 98.13 383.64 96.44 382.59 93.67 390.77 81.75 386.53 73.89 414.53 73.89 410.27 81.75 418.45 93.67" style="fill:#dbdbdb"></polygon><polygon points="418.45 93.67 417.4 96.44 383.64 96.44 382.59 93.67 418.45 93.67" style="fill:#a6a6a6"></polygon><polygon points="416.76 98.13 415.71 100.91 385.33 100.91 384.28 98.13 416.76 98.13" style="fill:#a6a6a6"></polygon><rect x="151.24" y="67.79" width="29.11" height="29.11" style="fill:#dbdbdb"></rect><rect x="155.75" y="72.31" width="20.09" height="20.09" style="fill:#fff"></rect><polygon points="155.75 92.39 155.75 72.31 175.84 72.31 155.75 92.39" style="fill:#ebebeb"></polygon><rect x="151.24" y="103.59" width="29.11" height="29.11" style="fill:#dbdbdb"></rect><rect x="155.75" y="108.11" width="20.09" height="20.09" style="fill:#fff"></rect><polygon points="155.75 122.3 155.75 108.11 169.94 108.11 155.75 122.3" style="fill:#ebebeb"></polygon><rect x="187.32" y="67.55" width="38.05" height="65.16" style="fill:#dbdbdb"></rect><rect x="192.03" y="72.31" width="28.64" height="55.64" style="fill:#fff"></rect><polygon points="192.03 108.78 192.03 72.31 210.8 72.31 192.03 108.78" style="fill:#ebebeb"></polygon><rect x="79.29" y="67.55" width="65.16" height="65.16" style="fill:#dbdbdb"></rect><rect x="84.05" y="72.3" width="55.64" height="55.65" style="fill:#fff"></rect><path d="M124.11,72.3c-8.41,8.46-32.26,32.43-40.06,40.13V72.3Z" style="fill:#ebebeb"></path><path d="M366,191.24a43.71,43.71,0,0,1-2.14,16.69,46.12,46.12,0,0,1-3.14,7.21c-1.57,3-3.19,5.85-3.11,9.23.3.24-.81.12-.82-.21-8.57-5.79-20-7.61-26.25-16.49-3-4.21-4.22-9.34-4.62-14.41-.42-5.52-.19-11.58,1.63-16.85,1.53-4.45,4.53-8.63,9-10.53s10.35-1.32,14.89.48C361.2,170.25,365.35,181.44,366,191.24Z" style="fill:#ebebeb"></path><path d="M365.5,258q-1.35-6.25-2.75-12.51c-1.85-8.15-3.79-16.29-6-24.35q-2-7.25-4.29-14.37a85.41,85.41,0,0,1,1.74-8.59c1-3.41,2.36-6.69,3.64-10,.08-.2-.25-.34-.35-.15-2.38,4.53-5.46,10.33-6,15.87q-2.67-8.07-5.85-16A66.17,66.17,0,0,1,347,175.06a.16.16,0,0,0-.3-.08A45.76,45.76,0,0,0,345,186.25c-1.63-3.95-3.37-7.87-5.25-11.74-.17-.34-.65,0-.51.3q4.31,10.13,7.9,20.55a43.2,43.2,0,0,0-13.43-9.22c-.21-.1-.41.21-.19.32a51.37,51.37,0,0,1,14.43,11.24q2.6,7.62,4.88,15.32c-5.19-5.93-12.58-10.14-19.86-12.65-.25-.09-.34.3-.11.39,8.4,3.25,14.7,8.63,20.78,15q.9,3.12,1.77,6.24,3.25,11.83,6.12,23.79,1.38,5.73,2.69,11.47c1,4.12,1.6,8.44,2.93,12.44.13.39.8.35.75-.1A116,116,0,0,0,365.5,258Z" style="fill:#dbdbdb"></path><path d="M356.36,182.6a22.24,22.24,0,0,0-3.85,7.8c0,.07.09.12.12,0a70.74,70.74,0,0,1,4.11-7.62C356.9,182.57,356.53,182.38,356.36,182.6Z" style="fill:#dbdbdb"></path><path d="M338.93,200.05a23.66,23.66,0,0,0-7.84-3.33c-.07,0-.13.08,0,.12,1.25.64,2.58,1.12,3.85,1.72s2.51,1.32,3.8,1.88A.23.23,0,0,0,338.93,200.05Z" style="fill:#dbdbdb"></path><path d="M336.15,177.23a16,16,0,0,0-2.46-1.8.14.14,0,0,0-.17.22A16.39,16.39,0,0,0,336,177.5C336.1,177.61,336.31,177.35,336.15,177.23Z" style="fill:#dbdbdb"></path><path d="M393.73,208.57c-6.55,1.67-13.12,3.19-19.67,4.84-.56.15-10.68-21.24-6.31-31.88,4.05-9.86,12.7-17,22.81-20,4.68-1.39,10.41-2.49,15.25-1.22,4.3,1.13,7.23,4.8,8.48,8.93,1.7,5.63.81,12.22-.46,17.84a31.19,31.19,0,0,1-6.94,14.3C403.3,205.32,398.83,207.28,393.73,208.57Z" style="fill:#ebebeb"></path><path d="M403.89,189a86.3,86.3,0,0,1-12.89,4.5,53.74,53.74,0,0,0-8.58,2.73c3-6,6.2-11.83,9.61-17.61,4.23-1,8.7-2.77,12-5.6a.18.18,0,0,0-.23-.28c-3.54,2.3-7.4,3.61-11.28,5.11.92-1.55,1.85-3.11,2.8-4.66.26-.43-.33-.89-.64-.48a137.3,137.3,0,0,0-9.8,15.09,71.46,71.46,0,0,1-.11-14.18.1.1,0,0,0-.19,0,46.93,46.93,0,0,0-.44,15.55c-2.45,4.44-4.7,9-6.74,13.63-.63-2.85-1.48-5.67-2-8.54a38.8,38.8,0,0,1-.44-12.49c0-.12-.16-.14-.19,0a44,44,0,0,0,1.82,23c-1.19,2.78-2.33,5.58-3.39,8.39a169.82,169.82,0,0,0-10.34,44.56.28.28,0,0,0,.55.06,222.4,222.4,0,0,1,11.37-44c2.1-5.57,4.47-11,7.05-16.24,3.87-1,7.74-2.37,11.54-3.52A36.1,36.1,0,0,0,404,189.25.13.13,0,0,0,403.89,189Z" style="fill:#dbdbdb"></path><path d="M410.16,183.17c-4,1.25-7.84,3.07-11.85,4.35-.19.06-.09.35.09.32,4.22-.7,8.42-1.83,11.9-4.44C410.43,183.3,410.3,183.12,410.16,183.17Z" style="fill:#dbdbdb"></path><path d="M378.18,173.37c.05-.21-.25-.34-.32-.13-1.23,3.61-2.13,7.45-1.22,11.22,0,.14.27.16.28,0C377.26,180.7,377.19,177,378.18,173.37Z" style="fill:#dbdbdb"></path><path d="M394.86,165.58a9.65,9.65,0,0,0-2,6.14c0,.13.22.22.26.06.57-2.07,1.45-3.94,2.17-5.94A.27.27,0,0,0,394.86,165.58Z" style="fill:#dbdbdb"></path><path d="M414.33,223.5c-1.89,6-6.4,14.35-13.55,14.42-4.63,0-9.29-.51-13.93-.57-5-.08-10-.07-14.92.23-.4,0,.6-14.89,12.54-22.15,3.35-2,7.45-2.68,11.24-3.5A52.1,52.1,0,0,1,409,210.55c2.74.11,5,.69,6,3.5S415.25,220.63,414.33,223.5Z" style="fill:#ebebeb"></path><path d="M409.19,216c-2.9.74-5.83,1.6-8.74,2.53a29.7,29.7,0,0,1,2.41-2.35,47.82,47.82,0,0,1,4-2.78c.11-.08,0-.3-.1-.24a16.42,16.42,0,0,0-7.05,5.6c-3.63,1.18-7.23,2.47-10.69,3.89a39.68,39.68,0,0,0-6.84,3.61,27,27,0,0,1,2.47-4.31c1.59-2.06,3.73-3.2,5.81-4.66a.19.19,0,0,0-.19-.32,17,17,0,0,0-9.31,10.1,39.65,39.65,0,0,0-6.78,6.16c-7.91,9-14.13,20.92-14.15,33.11,0,.29.46.38.52.07A67.57,67.57,0,0,1,375.59,234q.86-1,1.74-1.89a54.71,54.71,0,0,1,6.53-.49c2.55,0,5.07.38,7.6.58,4.17.34,8.78.39,12.55-1.71.16-.09.05-.38-.14-.31-8.38,3.05-17.18-.82-25.59,1a39.4,39.4,0,0,1,12.4-8l.77-.31c5.39.65,11.07,2,16.31.3a.13.13,0,0,0-.07-.25c-5.06,1.27-9.92-.32-14.92-.57,5.44-2.12,11-3.81,16.45-5.91C409.68,216.25,409.69,215.83,409.19,216Z" style="fill:#dbdbdb"></path><path d="M411.57,221.26a73.45,73.45,0,0,1-7.84.59.06.06,0,0,0,0,.11,16.17,16.17,0,0,0,7.9-.51C411.75,221.42,411.7,221.24,411.57,221.26Z" style="fill:#dbdbdb"></path><path d="M393.87,216.09a12.69,12.69,0,0,0-3.87,2.7c-.14.12,0,.36.19.25.66-.48,1.34-.93,2-1.37a19.38,19.38,0,0,0,1.89-1.19C394.28,216.33,394.09,216,393.87,216.09Z" style="fill:#dbdbdb"></path><path d="M351.69,235.49c.09.2-.2.38-.31.17h0a.26.26,0,0,1-.19.12,119.08,119.08,0,0,1-14.59,2.55c-3.95.35-8.51.57-12-1.72-4.69-3.11-7.77-11.42-5.24-16.7,3-6.26,12-2.86,16.56-.63A33.22,33.22,0,0,1,351.69,235.49Z" style="fill:#ebebeb"></path><path d="M355.19,238.38a47,47,0,0,0-8.71-6.63,29.91,29.91,0,0,0-8.84-9c-.17-.11-.32.16-.16.28a40,40,0,0,1,7.45,7.83,82.36,82.36,0,0,0-10.94-5,14.6,14.6,0,0,0-5.87-5.89c-.05,0-.11,0-.06.08a24.12,24.12,0,0,1,5.3,5.57c-2.22-.83-4.46-1.6-6.71-2.34-.2-.07-.27.24-.08.31,4,1.56,8.07,3.2,12,5.1a46.24,46.24,0,0,1-14.57,0c-.13,0-.19.17-.06.21a28.88,28.88,0,0,0,15.46.23,73.85,73.85,0,0,1,7.33,4.1,18.41,18.41,0,0,0-5.93.49,45,45,0,0,1-10.41,1.18c-.13,0-.17.21,0,.23,6,1,11.75-1.7,17.74-1a46.13,46.13,0,0,1,6.23,5.09,46.85,46.85,0,0,1,9.1,12.83c2.52,5.13,3.88,10.57,5.92,15.87a.19.19,0,0,0,.37-.1C368,257.36,362.81,245.83,355.19,238.38Z" style="fill:#dbdbdb"></path><path d="M337,224.05a6.75,6.75,0,0,0-1.54-1.87,6.13,6.13,0,0,0-1.79-1.34c-.06,0-.09.06-.05.1.49.57,1.18,1,1.71,1.52s1,1.17,1.53,1.7A.09.09,0,0,0,337,224.05Z" style="fill:#dbdbdb"></path><path d="M327,227.3c-.89-.23-1.84-.21-2.75-.4a22.74,22.74,0,0,1-2.67-.8.11.11,0,0,0-.09.2,8.87,8.87,0,0,0,5.51,1.28A.14.14,0,0,0,327,227.3Z" style="fill:#dbdbdb"></path><polygon points="383.92 249.45 382.93 260.64 379.59 298.41 350.01 298.41 345.83 260.64 344.6 249.45 383.92 249.45" style="fill:#c7c7c7"></polygon><polygon points="383.92 249.45 382.93 260.64 345.83 260.64 344.6 249.45 383.92 249.45" style="fill:#a6a6a6"></polygon><rect x="341.67" y="246.4" width="45.18" height="9.08" style="fill:#c7c7c7"></rect></g><g id="freepik--Shadows--inject-20"><ellipse cx="195.59" cy="430.94" rx="64.33" ry="9.69" style="fill:#ebebeb"></ellipse><path d="M315.92,440.12c0,8-30.51,14.42-68.15,14.42s-68.16-6.46-68.16-14.42,30.51-14.42,68.16-14.42S315.92,432.16,315.92,440.12Z" style="fill:#ebebeb"></path><ellipse cx="404.18" cy="402.95" rx="68.78" ry="10.88" style="fill:#ebebeb"></ellipse><ellipse cx="315.92" cy="402.95" rx="88.25" ry="11.76" style="fill:#ebebeb"></ellipse><ellipse cx="147.99" cy="339.44" rx="121.71" ry="12.91" style="fill:#ebebeb"></ellipse><ellipse cx="254.43" cy="338.82" rx="71.22" ry="9.49" style="fill:#ebebeb"></ellipse></g><g id="freepik--Lamp--inject-20"><rect x="236.36" y="331.32" width="51.58" height="5.86" style="fill:#37474f"></rect><rect x="259.1" y="134.16" width="6.11" height="197.15" style="fill:#37474f"></rect><rect x="259.1" y="134.16" width="6.11" height="30.96" style="fill:#263238"></rect><polygon points="294.5 152.09 229.8 152.09 234.5 136.64 234.67 136.09 248.35 91.13 275.95 91.13 289.64 136.1 289.64 136.11 289.79 136.62 294.5 152.09" style="fill:#CFD8DC"></polygon><path d="M250.64,101.52a.44.44,0,0,1-.43.44.44.44,0,0,1-.44-.44.44.44,0,0,1,.44-.43A.43.43,0,0,1,250.64,101.52Z" style="fill:#fff"></path><path d="M258.61,101.52a.44.44,0,0,1-.44.44.44.44,0,0,1-.43-.44.43.43,0,0,1,.43-.43A.44.44,0,0,1,258.61,101.52Z" style="fill:#fff"></path><path d="M266.58,101.52a.44.44,0,0,1-.88,0,.44.44,0,0,1,.88,0Z" style="fill:#fff"></path><path d="M274.54,101.52a.44.44,0,0,1-.43.44.44.44,0,0,1-.44-.44.44.44,0,0,1,.44-.43A.43.43,0,0,1,274.54,101.52Z" style="fill:#fff"></path><path d="M254.62,95.94a.44.44,0,0,1-.43.44.44.44,0,0,1-.44-.44.44.44,0,0,1,.44-.43A.43.43,0,0,1,254.62,95.94Z" style="fill:#fff"></path><path d="M262.59,95.94a.44.44,0,0,1-.43.44.44.44,0,0,1-.44-.44.44.44,0,0,1,.44-.43A.43.43,0,0,1,262.59,95.94Z" style="fill:#fff"></path><path d="M270.56,95.94a.44.44,0,0,1-.44.44.44.44,0,0,1-.43-.44.43.43,0,0,1,.43-.43A.44.44,0,0,1,270.56,95.94Z" style="fill:#fff"></path><path d="M242.67,113.1a.43.43,0,0,1-.43.44.44.44,0,1,1,0-.87A.43.43,0,0,1,242.67,113.1Z" style="fill:#fff"></path><path d="M250.64,113.1a.43.43,0,0,1-.43.44.44.44,0,1,1,0-.87A.43.43,0,0,1,250.64,113.1Z" style="fill:#fff"></path><path d="M258.61,113.1a.44.44,0,0,1-.44.44.44.44,0,0,1,0-.87A.44.44,0,0,1,258.61,113.1Z" style="fill:#fff"></path><path d="M266.58,113.1a.44.44,0,1,1-.44-.43A.44.44,0,0,1,266.58,113.1Z" style="fill:#fff"></path><path d="M274.54,113.1a.43.43,0,0,1-.43.44.44.44,0,1,1,0-.87A.43.43,0,0,1,274.54,113.1Z" style="fill:#fff"></path><path d="M282.51,113.1a.44.44,0,0,1-.44.44.44.44,0,0,1,0-.87A.44.44,0,0,1,282.51,113.1Z" style="fill:#fff"></path><path d="M246.66,107.53a.44.44,0,0,1-.44.43.43.43,0,0,1-.43-.43.44.44,0,0,1,.43-.44A.44.44,0,0,1,246.66,107.53Z" style="fill:#fff"></path><path d="M254.62,107.53a.43.43,0,0,1-.43.43.44.44,0,0,1-.44-.43.44.44,0,0,1,.44-.44A.44.44,0,0,1,254.62,107.53Z" style="fill:#fff"></path><path d="M262.59,107.53a.43.43,0,0,1-.43.43.44.44,0,0,1-.44-.43.44.44,0,0,1,.44-.44A.44.44,0,0,1,262.59,107.53Z" style="fill:#fff"></path><path d="M270.56,107.53a.44.44,0,0,1-.44.43.43.43,0,0,1-.43-.43.44.44,0,0,1,.43-.44A.44.44,0,0,1,270.56,107.53Z" style="fill:#fff"></path><path d="M278.53,107.53a.44.44,0,0,1-.44.43.43.43,0,0,1-.43-.43.44.44,0,0,1,.43-.44A.44.44,0,0,1,278.53,107.53Z" style="fill:#fff"></path><path d="M242.67,124.69a.43.43,0,0,1-.43.43.43.43,0,1,1,0-.86A.43.43,0,0,1,242.67,124.69Z" style="fill:#fff"></path><path d="M250.64,124.69a.43.43,0,0,1-.43.43.43.43,0,1,1,0-.86A.43.43,0,0,1,250.64,124.69Z" style="fill:#fff"></path><path d="M258.61,124.69a.44.44,0,0,1-.44.43.43.43,0,0,1,0-.86A.44.44,0,0,1,258.61,124.69Z" style="fill:#fff"></path><path d="M266.58,124.69a.44.44,0,1,1-.44-.43A.44.44,0,0,1,266.58,124.69Z" style="fill:#fff"></path><path d="M274.54,124.69a.43.43,0,0,1-.43.43.43.43,0,1,1,0-.86A.43.43,0,0,1,274.54,124.69Z" style="fill:#fff"></path><path d="M282.51,124.69a.44.44,0,0,1-.44.43.43.43,0,0,1,0-.86A.44.44,0,0,1,282.51,124.69Z" style="fill:#fff"></path><path d="M246.66,119.11a.44.44,0,0,1-.44.44.44.44,0,0,1-.43-.44.43.43,0,0,1,.43-.43A.44.44,0,0,1,246.66,119.11Z" style="fill:#fff"></path><path d="M254.62,119.11a.44.44,0,0,1-.43.44.44.44,0,0,1-.44-.44.44.44,0,0,1,.44-.43A.43.43,0,0,1,254.62,119.11Z" style="fill:#fff"></path><path d="M262.59,119.11a.44.44,0,0,1-.43.44.44.44,0,0,1-.44-.44.44.44,0,0,1,.44-.43A.43.43,0,0,1,262.59,119.11Z" style="fill:#fff"></path><path d="M270.56,119.11a.44.44,0,0,1-.44.44.44.44,0,0,1-.43-.44.43.43,0,0,1,.43-.43A.44.44,0,0,1,270.56,119.11Z" style="fill:#fff"></path><path d="M278.53,119.11a.44.44,0,0,1-.44.44.44.44,0,0,1-.43-.44.43.43,0,0,1,.43-.43A.44.44,0,0,1,278.53,119.11Z" style="fill:#fff"></path><path d="M234.71,136.27a.41.41,0,0,1-.21.37l.17-.55A.39.39,0,0,1,234.71,136.27Z" style="fill:#fff"></path><path d="M242.67,136.27a.43.43,0,0,1-.43.44.44.44,0,1,1,0-.87A.43.43,0,0,1,242.67,136.27Z" style="fill:#fff"></path><path d="M250.64,136.27a.43.43,0,0,1-.43.44.44.44,0,1,1,0-.87A.43.43,0,0,1,250.64,136.27Z" style="fill:#fff"></path><path d="M258.61,136.27a.44.44,0,0,1-.44.44.44.44,0,0,1,0-.87A.44.44,0,0,1,258.61,136.27Z" style="fill:#fff"></path><path d="M266.58,136.27a.44.44,0,1,1-.44-.43A.44.44,0,0,1,266.58,136.27Z" style="fill:#fff"></path><path d="M274.54,136.27a.43.43,0,0,1-.43.44.44.44,0,1,1,0-.87A.43.43,0,0,1,274.54,136.27Z" style="fill:#fff"></path><path d="M282.51,136.27a.44.44,0,0,1-.44.44.44.44,0,0,1,0-.87A.44.44,0,0,1,282.51,136.27Z" style="fill:#fff"></path><path d="M289.79,136.62a.41.41,0,0,1-.18-.35.41.41,0,0,1,0-.16Z" style="fill:#fff"></path><path d="M238.69,130.7a.43.43,0,0,1-.43.43.44.44,0,1,1,0-.87A.43.43,0,0,1,238.69,130.7Z" style="fill:#fff"></path><circle cx="246.22" cy="130.7" r="0.43" style="fill:#fff"></circle><path d="M254.62,130.7a.43.43,0,0,1-.43.43.44.44,0,1,1,0-.87A.43.43,0,0,1,254.62,130.7Z" style="fill:#fff"></path><path d="M262.59,130.7a.43.43,0,0,1-.43.43.44.44,0,1,1,0-.87A.43.43,0,0,1,262.59,130.7Z" style="fill:#fff"></path><path d="M270.56,130.7a.44.44,0,0,1-.44.43.44.44,0,0,1,0-.87A.44.44,0,0,1,270.56,130.7Z" style="fill:#fff"></path><path d="M278.53,130.7a.44.44,0,0,1-.44.43.44.44,0,0,1,0-.87A.44.44,0,0,1,278.53,130.7Z" style="fill:#fff"></path><circle cx="286.06" cy="130.7" r="0.43" style="fill:#fff"></circle><path d="M234.71,147.86a.44.44,0,0,1-.44.43.43.43,0,0,1-.43-.43.44.44,0,0,1,.43-.44A.44.44,0,0,1,234.71,147.86Z" style="fill:#fff"></path><path d="M242.67,147.86a.43.43,0,0,1-.43.43.44.44,0,0,1-.44-.43.44.44,0,0,1,.44-.44A.44.44,0,0,1,242.67,147.86Z" style="fill:#fff"></path><path d="M250.64,147.86a.43.43,0,0,1-.43.43.44.44,0,0,1-.44-.43.44.44,0,0,1,.44-.44A.44.44,0,0,1,250.64,147.86Z" style="fill:#fff"></path><path d="M258.61,147.86a.44.44,0,0,1-.44.43.43.43,0,0,1-.43-.43.44.44,0,0,1,.43-.44A.44.44,0,0,1,258.61,147.86Z" style="fill:#fff"></path><path d="M266.58,147.86a.44.44,0,0,1-.88,0,.44.44,0,1,1,.88,0Z" style="fill:#fff"></path><path d="M274.54,147.86a.43.43,0,0,1-.43.43.44.44,0,0,1-.44-.43.44.44,0,0,1,.44-.44A.44.44,0,0,1,274.54,147.86Z" style="fill:#fff"></path><path d="M282.51,147.86a.44.44,0,0,1-.44.43.43.43,0,0,1-.43-.43.44.44,0,0,1,.43-.44A.44.44,0,0,1,282.51,147.86Z" style="fill:#fff"></path><path d="M290.48,147.86a.44.44,0,0,1-.44.43.43.43,0,0,1-.43-.43.44.44,0,0,1,.43-.44A.44.44,0,0,1,290.48,147.86Z" style="fill:#fff"></path><path d="M238.69,142.28a.44.44,0,0,1-.43.44.44.44,0,0,1-.44-.44.44.44,0,0,1,.44-.43A.43.43,0,0,1,238.69,142.28Z" style="fill:#fff"></path><circle cx="246.22" cy="142.28" r="0.43" style="fill:#fff"></circle><path d="M254.62,142.28a.44.44,0,0,1-.43.44.44.44,0,0,1-.44-.44.44.44,0,0,1,.44-.43A.43.43,0,0,1,254.62,142.28Z" style="fill:#fff"></path><path d="M262.59,142.28a.44.44,0,0,1-.43.44.44.44,0,0,1-.44-.44.44.44,0,0,1,.44-.43A.43.43,0,0,1,262.59,142.28Z" style="fill:#fff"></path><path d="M270.56,142.28a.44.44,0,0,1-.44.44.44.44,0,0,1-.43-.44.43.43,0,0,1,.43-.43A.44.44,0,0,1,270.56,142.28Z" style="fill:#fff"></path><path d="M278.53,142.28a.44.44,0,0,1-.44.44.44.44,0,0,1-.43-.44.43.43,0,0,1,.43-.43A.44.44,0,0,1,278.53,142.28Z" style="fill:#fff"></path><circle cx="286.06" cy="142.28" r="0.43" style="fill:#fff"></circle></g><g id="freepik--Sofa--inject-20"><polygon points="108.15 261.34 75.88 261.34 57.41 169.26 86.96 155.69 108.15 261.34" style="fill:#dbdbdb"></polygon><polygon points="200.51 261.34 108.15 261.34 86.96 155.69 179.32 155.69 200.51 261.34" style="fill:#ebebeb"></polygon><rect x="42.13" y="211.94" width="49.46" height="101.48" style="fill:#dbdbdb"></rect><polygon points="224.25 313.41 210.74 313.41 190.61 211.94 224.25 211.94 224.25 313.41" style="fill:#dbdbdb"></polygon><rect x="91.58" y="211.94" width="27.17" height="101.48" style="fill:#ebebeb"></rect><rect x="224.25" y="211.94" width="27.17" height="101.48" style="fill:#ebebeb"></rect><rect x="118.76" y="261.34" width="105.49" height="52.07" style="fill:#ebebeb"></rect><rect x="118.76" y="238.83" width="105.49" height="22.72" style="fill:#ebebeb"></rect><path d="M98.24,211.94l10.26-.18,10.26-.13h.3v.31l.11,11.87,0,11.88c0,7.92,0,15.83,0,23.75s0,15.83-.14,23.75-.17,15.83-.33,23.75q-.26-11.88-.34-23.75c-.09-7.92-.11-15.83-.13-23.75s0-15.83,0-23.75l0-11.88.12-11.87.3.3-10.26-.12Z" style="fill:#dbdbdb"></path><path d="M224.25,211.94c.21,7.94.3,15.89.38,23.84l.12,23.84-.11,23.83-.14,11.92-.25,11.92L224,295.37l-.14-11.92-.12-23.83.12-23.84C224,227.83,224,219.88,224.25,211.94Z" style="fill:#dbdbdb"></path><path d="M224.25,261.34c-8.79.21-17.58.3-26.37.38l-26.38.12-26.37-.12L132,261.58l-13.19-.24,13.19-.25,13.18-.13,26.37-.12,26.38.12C206.67,261,215.46,261.13,224.25,261.34Z" style="fill:#dbdbdb"></path><path d="M224.25,238.83c-8.79.2-17.58.3-26.37.38l-26.38.12-26.37-.12L132,239.07l-13.19-.24,13.19-.25,13.18-.14,26.37-.11,26.38.11C206.67,238.52,215.46,238.62,224.25,238.83Z" style="fill:#dbdbdb"></path><polygon points="60.92 313.41 60.25 321.63 58.69 340.63 51.53 340.63 49.97 321.63 49.3 313.41 60.92 313.41" style="fill:#c7c7c7"></polygon><polygon points="49.3 313.41 60.92 313.41 60.25 321.63 49.97 321.63 49.3 313.41" style="fill:#a6a6a6"></polygon><polygon points="110.98 313.41 110.31 321.63 108.75 340.63 101.59 340.63 100.03 321.63 99.36 313.41 110.98 313.41" style="fill:#c7c7c7"></polygon><polygon points="99.36 313.41 110.98 313.41 110.31 321.63 100.03 321.63 99.36 313.41" style="fill:#a6a6a6"></polygon><polygon points="194.01 313.41 193.34 321.63 191.78 340.63 184.62 340.63 183.06 321.63 182.39 313.41 194.01 313.41" style="fill:#c7c7c7"></polygon><polygon points="182.39 313.41 194.01 313.41 193.34 321.63 183.06 321.63 182.39 313.41" style="fill:#a6a6a6"></polygon><polygon points="244.09 313.41 243.42 321.63 241.85 340.63 234.69 340.63 233.13 321.63 232.46 313.41 244.09 313.41" style="fill:#c7c7c7"></polygon><polygon points="244.09 313.41 243.42 321.63 233.13 321.63 232.46 313.41 244.09 313.41" style="fill:#a6a6a6"></polygon></g><g id="freepik--character-1--inject-20"><path d="M224.44,326.23c-1.75.2-48.64-9.65-50.2-11.16-.59-.56.45-7.48,1.94-15.8.32-1.79.66-3.64,1-5.52,2.32-12.21,5.06-25.11,5.06-25.11l31.39,6.5-5.92,24.93-1.3,5.47s16.27,11.8,17.79,13.64S226.2,326,224.44,326.23Z" style="fill: rgb(173, 99, 89);"></path><path d="M224.44,326.23c-1.75.2-48.64-9.65-50.2-11.16-.71-.69,1-10.75,3-21.32l30.53,6.32-1.3,5.47s16.27,11.8,17.79,13.64S226.2,326,224.44,326.23Z" style="fill:#fff"></path><path d="M224.44,326.23c-1.75.2-48.64-9.65-50.2-11.16-.59-.56.45-7.48,1.94-15.8l30.25,6.27s16.27,11.8,17.79,13.64S226.2,326,224.44,326.23Z" style="fill:#CFD8DC"></path><path d="M224.16,324.21c-7.82-1.84-39.53-8.55-47.4-9.77-.07,0-.08,0,0,0,7.71,2,39.48,8.45,47.39,9.86C224.3,324.37,224.33,324.25,224.16,324.21Z" style="fill:#263238"></path><path d="M221.56,316.86a6.44,6.44,0,0,0-5.11.93,6.19,6.19,0,0,0-2.63,3.83s.07.06.09,0a7.46,7.46,0,0,1,7.63-4.69C221.6,317,221.62,316.87,221.56,316.86Z" style="fill:#263238"></path><path d="M209.32,307c-3.14-.7-7-.36-9.52,1.8-.09.09,0,.22.13.2a44.29,44.29,0,0,1,9.36-1.6A.2.2,0,0,0,209.32,307Z" style="fill:#263238"></path><path d="M211.55,308.42c-3.14-.71-7-.36-9.52,1.8-.09.08,0,.22.13.19a44.16,44.16,0,0,1,9.36-1.59A.2.2,0,0,0,211.55,308.42Z" style="fill:#263238"></path><path d="M213.78,309.88c-3.14-.71-7-.36-9.52,1.8-.09.08,0,.22.13.19a44.27,44.27,0,0,1,9.36-1.59A.2.2,0,0,0,213.78,309.88Z" style="fill:#263238"></path><path d="M216,311.33c-3.14-.7-7-.36-9.52,1.81-.09.08,0,.22.13.19a44.18,44.18,0,0,1,9.36-1.6A.2.2,0,0,0,216,311.33Z" style="fill:#263238"></path><path d="M180.33,307.39c-3.53-.73-4.68,4.76-1.14,5.49S183.87,308.12,180.33,307.39Z" style="fill:#263238"></path><path d="M214.48,299.28c-1.31-1.65-3.59-.79-4.86.38a16.82,16.82,0,0,0-4.55,7.44.09.09,0,0,0,.08.12.39.39,0,0,0,.51.37c2.57-1.08,5.44-1.92,7.6-3.75C214.52,302.77,215.72,300.85,214.48,299.28Zm-5.26,5.88c-1.25.56-2.52,1-3.75,1.66.89-1.45,1.72-2.93,2.75-4.29a19.13,19.13,0,0,1,1.6-1.88c.9-.89,4.54-2.87,4.13.61C213.73,303.19,210.7,304.49,209.22,305.16Z" style="fill:#263238"></path><path d="M197,306.63c2.65,1,5.64.81,8.42,1,.28,0,.41-.3.35-.53a.08.08,0,0,0,0-.13,16.91,16.91,0,0,0-6.8-5.47c-1.59-.66-4-.71-4.7,1.29S195.46,306.05,197,306.63Zm-1.53-2.19c-1.56-3.15,2.54-2.51,3.69-2a19.75,19.75,0,0,1,2.14,1.23c1.43.93,2.71,2.05,4,3.11-1.36-.16-2.73-.19-4.09-.3C199.63,306.37,196.34,306.17,195.48,304.44Z" style="fill:#263238"></path><path d="M210,298.36l-11.36-1.91-22.5-3.81s7.26-29.14,6.72-34-23.21-16.59-26.14-22.19S155.33,217,155.33,217h26.46a21.87,21.87,0,0,1,2.1,4.05c.19,1,27.4,21.48,31.12,30.51C218.48,260.08,210,298.36,210,298.36Z" style="fill:#455a64"></path><path d="M176.17,292.64s7.26-29.14,6.72-34-23.21-16.59-26.14-22.19S155.33,217,155.33,217h17.43l25.91,79.41Z" style="fill:#263238"></path><path d="M210.6,290.36c-2.12-.38-4.26-.68-6.39-1.05s-4.26-.69-6.39-1c-4.26-.67-8.53-1.24-12.8-1.85-2.41-.34-4.82-.69-7.22-1.11-.1,0-.12.14,0,.16,4.24.83,8.46,1.79,12.71,2.54s8.52,1.35,12.81,1.79c2.42.24,4.86.51,7.29.66A.06.06,0,1,0,210.6,290.36Z" style="fill:#263238"></path><path d="M195.1,332.72c-1.77.06-47.66-13.72-49.08-15.35-.54-.62,1.07-7.42,3.26-15.58.47-1.76,1-3.58,1.49-5.42,3.33-12,7.15-24.59,7.15-24.59l30.73,9.12-8,24.34-1.75,5.35s15.21,13.13,16.57,15.08S196.86,332.66,195.1,332.72Z" style="fill: rgb(173, 99, 89);"></path><path d="M195.1,332.72c-1.77.06-47.66-13.72-49.08-15.35-.66-.75,1.86-10.64,4.75-21l29.88,8.87-1.75,5.35s15.21,13.13,16.57,15.08S196.86,332.66,195.1,332.72Z" style="fill:#fff"></path><path d="M195.1,332.72c-1.77.06-47.66-13.72-49.08-15.35-.54-.62,1.07-7.42,3.26-15.58l29.62,8.8s15.21,13.13,16.57,15.08S196.86,332.66,195.1,332.72Z" style="fill:#CFD8DC"></path><path d="M195,330.69c-7.64-2.5-38.67-11.85-46.41-13.74-.07,0-.08,0,0,0,7.52,2.65,38.63,11.75,46.39,13.82C195.12,330.86,195.15,330.74,195,330.69Z" style="fill:#263238"></path><path d="M193,323.14a6.5,6.5,0,0,0-5.17.49,6.23,6.23,0,0,0-2.95,3.6s.07.07.09,0a7.47,7.47,0,0,1,8-4A0,0,0,1,0,193,323.14Z" style="fill:#263238"></path><path d="M181.65,312.25c-3.07-1-7-1-9.63,1-.11.07,0,.22.11.2a44.73,44.73,0,0,1,9.46-.8A.2.2,0,0,0,181.65,312.25Z" style="fill:#263238"></path><path d="M183.75,313.89c-3.07-1-7-1-9.63,1-.11.07,0,.22.11.2a44.73,44.73,0,0,1,9.46-.8A.2.2,0,0,0,183.75,313.89Z" style="fill:#263238"></path><path d="M185.85,315.53c-3.07-1-7-1-9.63,1-.11.07,0,.22.11.2a44.73,44.73,0,0,1,9.46-.8A.2.2,0,0,0,185.85,315.53Z" style="fill:#263238"></path><path d="M188,317.17c-3.07-1-7-1-9.63,1-.11.07,0,.22.11.2a44.73,44.73,0,0,1,9.46-.8A.2.2,0,0,0,188,317.17Z" style="fill:#263238"></path><path d="M152.73,310.23c-3.46-1-5.06,4.34-1.6,5.37S156.19,311.26,152.73,310.23Z" style="fill:#263238"></path><path d="M187.44,305c-1.17-1.76-3.51-1.09-4.87,0a16.84,16.84,0,0,0-5.16,7c0,.06,0,.1.06.12,0,.24.21.5.48.41,2.65-.86,5.59-1.45,7.89-3.09C187.19,308.51,188.55,306.69,187.44,305Zm-5.74,5.41c-1.29.45-2.6.84-3.87,1.34,1-1.37,2-2.77,3.1-4a19.16,19.16,0,0,1,1.75-1.74c1-.82,4.77-2.48,4.07,1C186.37,308.86,183.24,309.9,181.7,310.44Z" style="fill:#263238"></path><path d="M169.41,310.88c2.56,1.21,5.55,1.28,8.31,1.66.29,0,.44-.26.4-.49a.09.09,0,0,0,0-.13,16.88,16.88,0,0,0-6.31-6c-1.53-.8-4-1-4.8.88S167.92,310.16,169.41,310.88Zm-1.33-2.32c-1.29-3.26,2.74-2.29,3.84-1.65a17.71,17.71,0,0,1,2,1.4c1.36,1.05,2.53,2.27,3.77,3.44-1.34-.27-2.7-.42-4.05-.64C172.05,310.84,168.79,310.37,168.08,308.56Z" style="fill:#263238"></path><path d="M131.2,217l41.57.06s-1.11,11.14-1.78,12.19c0,0,19.49,17.64,22.06,26.51S183.89,303,183.89,303l-34-9.38s9.53-31,9.53-34.93c0-2.67-23.14-14.87-27.62-20.88S131.2,217,131.2,217Z" style="fill:#455a64"></path><path d="M193.52,256.79A13.84,13.84,0,0,0,192,252c-.82-1.49-14.08-18-21-22.75-.11-.07-.24.07-.14.15,6.32,5.26,18.49,20.32,19.55,21.82a12.06,12.06,0,0,1,2,4.48c.77,3.42.33,7-.12,10.46-.57,4.34-1.22,8.69-2,13a.09.09,0,0,0,.17,0c1-3.94,1.82-7.89,2.45-11.9C193.4,263.86,194,260.29,193.52,256.79Z" style="fill:#263238"></path><path d="M173.69,217.77c-.27,1.72-.51,3.45-.86,5.15-.17.81-.31,1.63-.54,2.42a1.55,1.55,0,0,1-.51.89,2,2,0,0,1-1.07.27c-.8,0-1.36-.37-1.32-1.22a19.45,19.45,0,0,1,.43-2.4c.15-.87.26-1.73.36-2.6,0-.37.07-.75.1-1.12s0-.91.05-1.36c0-.09-.14-.1-.15,0-.08.4-.23.77-.31,1.16s-.18.8-.26,1.19c-.15.8-.3,1.6-.46,2.4s-.36,1.49-.47,2.25a2.24,2.24,0,0,0,.27,1.72,2.45,2.45,0,0,0,3.1.32,2.16,2.16,0,0,0,.77-1.35c.17-.75.27-1.52.39-2.27.28-1.8.59-3.59.77-5.4C174,217.64,173.72,217.61,173.69,217.77Z" style="fill:#263238"></path><path d="M170.6,226.66c0,.21,0,.42.06.63s0,.42.05.63,0,.42,0,.63,0,.41.05.62a.08.08,0,0,0,.16,0,4.34,4.34,0,0,0,.06-.63c0-.21,0-.43,0-.64s0-.42-.05-.63a2.36,2.36,0,0,0-.08-.65A.16.16,0,0,0,170.6,226.66Z" style="fill:#263238"></path><path d="M185.35,296.08c-2.08-.59-4.18-1.1-6.26-1.66s-4.18-1.1-6.27-1.64c-4.17-1.07-8.36-2.06-12.55-3.07-2.37-.57-4.74-1.16-7.09-1.8-.1,0-.12.12,0,.15,4.14,1.24,8.25,2.6,12.41,3.75s8.35,2.18,12.57,3c2.39.48,4.79,1,7.2,1.36A.06.06,0,0,0,185.35,296.08Z" style="fill:#263238"></path><path d="M161.87,254.93a13.88,13.88,0,0,0-2.77-2.15l-3.47-2.44-6.95-4.87-6.84-4.8c-2.16-1.51-4.6-2.9-6.26-5-3.82-4.78-2.68-11.32-1.61-16.83,0-.1-.13-.14-.15,0-1,4.8-2,10,0,14.69a12.94,12.94,0,0,0,4.36,5.12c2.16,1.6,4.39,3.11,6.59,4.65L158.71,253a11.88,11.88,0,0,1,3,2.42c.87,1.22.39,2.74.07,4.06q-1,4-2,8.06-2.32,9-5,18a.1.1,0,0,0,.19.05q2.44-7.93,4.58-16,1.08-4,2.09-8a32.57,32.57,0,0,0,.9-3.91A3.38,3.38,0,0,0,161.87,254.93Z" style="fill:#263238"></path><path d="M163.75,177.32c.42,8.68,4,37.5,11.43,42,4.86,3,32.47,6.85,37.87,3.11,2.35-1.64,3.45-19.38.41-19.76s-25-1-26.88-2.38S175.33,175.51,171,169C163.64,157.78,163.53,172.65,163.75,177.32Z" style="fill: rgb(173, 99, 89);"></path><path d="M183.52,191.24l-2.7.94-16.88,5.87a189.29,189.29,0,0,1-2.14-24.2c0-8.41,2.48-12.52,6.12-9.86,1.43,1,3,3.08,4.69,6.31Z" style="fill:#CFD8DC"></path><path d="M164.63,194.93c2.74-1.16,14.15-5.48,16.68-6.25.18-.06.25,0,.08.12A159,159,0,0,1,164.68,195C164.61,195.06,164.56,195,164.63,194.93Z" style="fill:#263238"></path><path d="M180.82,192.18l-16.88,5.87a189.29,189.29,0,0,1-2.14-24.2c0-8.41,2.48-12.52,6.12-9.86Z" style="fill:#263238"></path><path d="M185.07,218c-.77.85-27.27,2.75-43.94,3.76-7.63.45-13.18.73-13.27.62-.75-.87,4.24-43.49,21.83-59.78a11.79,11.79,0,0,1,1.05-.87c5.95-4.35,13.71-1.26,14.92-.65,2.29,1.14,6.11,7.86,7.87,13.83C175.54,181.7,185.76,217.25,185.07,218Z" style="fill:#CFD8DC"></path><path d="M150.74,161.77l-9.61,60c-7.63.45-13.18.73-13.27.62-.75-.87,4.24-43.49,21.83-59.78A11.79,11.79,0,0,1,150.74,161.77Z" style="fill:#263238"></path><path d="M179.35,206.67c-.33,2.88-8.41,1.24-10.47,1.26s-2.42.52-1.47,1.23a3.45,3.45,0,0,0,.64.31c-3.09-1-13.16-5.84-13.16-5.84s6.52-1.38,9.93-1.68S179.68,203.78,179.35,206.67Z" style="fill: rgb(173, 99, 89);"></path><path d="M200.6,194a30.84,30.84,0,0,1,5.76-3.25c2.7-1,8.63-2.72,9.68-3.33l1.81-.2-10,38-15.89,5-27.09-5.91,7.93-36,1.84-.23s3.45.89,6.28,1.33S193.44,189.76,200.6,194Z" style="fill:#fff"></path><polygon points="189.58 231.34 198.44 194.82 171.59 188.03 163.32 225.26 189.58 231.34" style="fill:#37474f"></polygon><polygon points="189.58 231.34 193.44 231.34 202.35 194.82 198.44 194.82 189.58 231.34" style="fill:#263238"></polygon><polygon points="193.44 231.34 202.35 194.82 218.62 186.89 208.25 225.55 193.44 231.34" style="fill:#37474f"></polygon><path d="M140.65,169.31c-6.2,6.09-26.21,30.29-24.66,38.81,1,5.6,30.34,16.51,36.72,18,2.79.67,8.67-18.34,6.93-20.85s-19.89-4.62-20.14-6.91,10.2-21.65,12.2-29.19C155.15,156.22,144,166,140.65,169.31Z" style="fill: rgb(173, 99, 89);"></path><path d="M152.86,171.6c5-12-.66-13.55-9.62-6.06A190,190,0,0,0,126,182.62l17.75,10.73S149.63,179.26,152.86,171.6Z" style="fill:#CFD8DC"></path><path d="M151.48,175.42c-.65,1.59-1.25,3.19-1.85,4.79.44-.59.91-1.16,1.4-1.71,0,0,.06,0,0,0-.35.47-.68.95-1,1.42l-.51.67-.11.15c-.47,1.24-.95,2.49-1.46,3.72-.61,1.48-1.25,2.93-1.89,4.39s-1.54,3.11-2.14,4.64c0,.13-1.58-1-1.75-1s-.09-.27.05-.16,1.59.81,1.62.81c.65-1.46,1.13-3,1.73-4.48s1.19-2.95,1.82-4.42c1.28-3,2.73-5.88,4-8.85C151.44,175.35,151.49,175.38,151.48,175.42Z" style="fill:#263238"></path><path d="M128.8,181.16c2.65,1.37,13.25,7.4,15.46,8.86.15.1.12.22,0,.14a161.51,161.51,0,0,1-15.46-8.9C128.69,181.23,128.74,181.12,128.8,181.16Z" style="fill:#263238"></path><path d="M184.32,218.8c-.41,2.54-4.46,2.94-4.74,3,.24,0,3.8.05,3.2,2.54s-4.23,3.54-4.23,3.54,1.1.74-.15,2.36c-1.8,2.33-8.16,2.39-11.48,1.63s-14.95-6-16.71-6.81l4.68-21.39s10.07,4.83,13.16,5.84h0a54.79,54.79,0,0,0,6.51,1.88c3.53.65,8.7-1.39,9,1.25.27,2.36-3.45,3.43-3.45,3.43S184.75,216.19,184.32,218.8Z" style="fill: rgb(173, 99, 89);"></path><path d="M180,216c-5.29,1.13-7.8.71-12.8-1.14a.08.08,0,0,0-.07.15c4.72,2.25,7.8,3.24,12.94,1.25C180.29,216.16,180.22,216,180,216Z" style="fill:#263238"></path><path d="M179.79,221.66c-5.6.69-8.33.26-13.7-1.29-.08,0-.12.11-.05.14,5.15,2,8.23,2.87,13.74,1.44C180,221.89,180,221.63,179.79,221.66Z" style="fill:#263238"></path><path d="M178.48,227.8c-5.47.28-8.48-.07-13.5-2.24a.1.1,0,0,0-.09.18A18.18,18.18,0,0,0,178.47,228C178.81,227.91,178.83,227.79,178.48,227.8Z" style="fill:#263238"></path><path d="M217.14,197.58c1.44,2.63,4.86,5.8,5.26,8a2.55,2.55,0,0,1-1.26,2.77s2.26,1,2.29,3c0,1-1.66,2-1.66,2a3.07,3.07,0,0,1,1.7,2.68c-.07,1.45-1.74,2.19-1.74,2.19s1.33,1.61.78,3.07c-1.1,2.95-13.56,3.67-15.74-.8-1-2.09,2-2.1,2-2.1s-4.4-1.05-4.61-3.61,3.75-2.34,3.75-2.34-4.25-1-4.2-3.73,4-1.88,4-1.88-2.88-1.72-2.38-3.77c.84-3.37,6.32.5,9-.31l1.25-4.6Z" style="fill: rgb(173, 99, 89);"></path><path d="M219.87,201.36c-1.15-2.61,2-6.09,1.22-8.74-1-3.58-4.87.21-5.48,5.54l.26,4.21Z" style="fill: rgb(173, 99, 89);"></path><path d="M221.49,218.38a0,0,0,1,1,0,.06,21.56,21.56,0,0,1-12.87,0c-.13,0-.12-.28,0-.26A44.06,44.06,0,0,0,221.49,218.38Z" style="fill:#100e3a"></path><path d="M221.84,213.38s.06.08,0,.09a20.25,20.25,0,0,1-14-.9c-.15-.07-.21-.29,0-.22C210.83,213.55,217.84,214,221.84,213.38Z" style="fill:#100e3a"></path><path d="M207.44,206.58A27.85,27.85,0,0,0,221,208.4c.06,0,.06.08,0,.1a18.1,18.1,0,0,1-7.58.45,12.42,12.42,0,0,1-6-2.22C207.31,206.68,207.35,206.54,207.44,206.58Z" style="fill:#100e3a"></path><path d="M164.4,172.81c-3.14.48-8.05-4.67-9.83-8.65a63,63,0,0,1,1.11-6.35c.36-2,.71-4.31.88-6.41,0-.43,1.43.48,1.43.48l2.66.88,8.8,2.91a33.38,33.38,0,0,0-1.92,8,4.19,4.19,0,0,0,0,.87v.14C167.69,166.29,167.44,172.34,164.4,172.81Z" style="fill: rgb(173, 99, 89);"></path><path d="M167.55,164.49v.14a9,9,0,0,1-1.35,0c-8.85-.92-9-12.27-9-12.27l3.49.44,8.8,2.91a33.38,33.38,0,0,0-1.92,8A4.19,4.19,0,0,0,167.55,164.49Z" style="fill:#263238"></path><path d="M156.92,131.83c-2.8,5.11-3.4,19.23-.25,23.55,4.57,6.27,13.68,8.67,19.41,2.8,5.56-5.68,6.09-23.55,2.42-27.64C173.09,124.51,161.05,124.29,156.92,131.83Z" style="fill: rgb(173, 99, 89);"></path><path d="M160.6,158.57h0" style="fill:none;stroke:#f5a79e;stroke-linecap:round;stroke-linejoin:round;stroke-width:0px"></path><path d="M155.78,145c2.82,0,2.37-7.51,2.37-7.51s4.42.09,6.39-6.16c0,0,1.85,7.76,13.57,7.93a7.42,7.42,0,0,0,.66-6,41.77,41.77,0,0,1,2.07,6.61s4.06-9.22-3.66-13.71c-3.08-1.79-8.07-2.19-16.1.5,0,0-.83-4.7-1.77-4.23s.14,4.91.14,4.91-3.16-1.47-3.81-.86,2.51,1.8,2.51,1.8a6.6,6.6,0,0,0-5.23,6.87C153,140.54,154.38,145,155.78,145Z" style="fill:#263238"></path><path d="M176.37,139.57a10.43,10.43,0,0,1-4.51-.39,11.34,11.34,0,0,1-3.51-2,10.18,10.18,0,0,1-2.45-3.12,12.08,12.08,0,0,1-1.05-4.18c0-.08-.14-.11-.16,0a8.15,8.15,0,0,0,.57,4.28,8.64,8.64,0,0,0,6.15,5.39,24.25,24.25,0,0,0,5,.19C176.48,139.73,176.47,139.56,176.37,139.57Z" style="fill:#263238"></path><path d="M159.07,128.26a6,6,0,0,0-6.79,4.21,11,11,0,0,0,0,5.08,20.48,20.48,0,0,0,1.8,5c0,.09.18,0,.13-.08a16.05,16.05,0,0,1-1.36-4.7,15.07,15.07,0,0,1-.11-4.69,5.8,5.8,0,0,1,6.3-4.69C159.15,128.43,159.17,128.27,159.07,128.26Z" style="fill:#263238"></path><path d="M170.8,123.59a23.76,23.76,0,0,0-5.93,1.31,17.06,17.06,0,0,0-5.13,2.62c-.07.06,0,.19.09.13a30.54,30.54,0,0,1,10.53-3.22c3.37-.49,7.22,0,9.34,3,0,0,.11,0,.08,0C177.94,124.33,174.17,123.35,170.8,123.59Z" style="fill:#263238"></path><path d="M168.7,144.84c-1.76-.2-2,3.35-.4,3.54S170.19,145,168.7,144.84Z" style="fill:#263238"></path><path d="M176.82,145.81c1.77.14,1.37,3.67-.27,3.55S175.33,145.7,176.82,145.81Z" style="fill:#263238"></path><path d="M167.7,142.69a9.11,9.11,0,0,0,1.14-.3,1.85,1.85,0,0,0,1.1-.53.6.6,0,0,0,0-.75,1.52,1.52,0,0,0-1.5-.27,2.23,2.23,0,0,0-1.35.86A.65.65,0,0,0,167.7,142.69Z" style="fill:#263238"></path><path d="M178.41,143.63a11.42,11.42,0,0,1-1.12-.39,1.89,1.89,0,0,1-1.06-.6.62.62,0,0,1,.09-.74,1.51,1.51,0,0,1,1.52-.17,2.26,2.26,0,0,1,1.29,1A.65.65,0,0,1,178.41,143.63Z" style="fill:#263238"></path><path d="M167.9,153.84c.14.33.25.76.61.95a3.05,3.05,0,0,0,1.2.19s.06.05,0,.07a1.5,1.5,0,0,1-1.53,0,1.19,1.19,0,0,1-.43-1.23C167.79,153.78,167.88,153.79,167.9,153.84Z" style="fill:#263238"></path><path d="M168.27,151.06h-.05a4.69,4.69,0,0,1-3.23-8,4.68,4.68,0,1,1,3.28,8Zm0-8.62a4,4,0,0,0-2.76,1.12,3.91,3.91,0,0,0-1.17,2.78,3.84,3.84,0,0,0,1.12,2.79,3.92,3.92,0,0,0,2.77,1.18h0a3.94,3.94,0,0,0,3.93-3.9h0a3.93,3.93,0,0,0-3.89-4Z" style="fill:#CFD8DC"></path><path d="M178,152.39h0a3.2,3.2,0,0,1-2.51-1.37,5.15,5.15,0,0,1-1-3.14c0-2.46,1.62-4.44,3.56-4.44h0a3.17,3.17,0,0,1,2.52,1.37,5.08,5.08,0,0,1,1,3.14C181.54,150.4,180,152.39,178,152.39Zm0-8.2c-1.52,0-2.78,1.65-2.8,3.7a4.4,4.4,0,0,0,.82,2.68,2.5,2.5,0,0,0,1.93,1.07h0c1.53,0,2.79-1.65,2.81-3.7h0a4.4,4.4,0,0,0-.83-2.68,2.41,2.41,0,0,0-1.92-1.07Z" style="fill:#CFD8DC"></path><path d="M173.08,151.31s0,1.64-.16,2.39c0,.07-.2.08-.46.05h0a3.66,3.66,0,0,1-3.27-1.91.08.08,0,0,1,.13-.09,5.44,5.44,0,0,0,3.13,1.47c.09-.2,0-2.83.09-2.79.49.16,1.34.53,1.66.66,0-1.06,0-4.09.13-6,0-.12.19-.13.2,0a52.16,52.16,0,0,1,.34,6.81C174.83,152,173.36,151.49,173.08,151.31Z" style="fill:#263238"></path><path d="M174.78,147.08c-.62-.83-2-.11-2-.1l-.35-.66c.08,0,2-1,3,.31Z" style="fill:#CFD8DC"></path><path d="M164.28,144.87a91.78,91.78,0,0,0-9.45-2.56,4.69,4.69,0,0,0-3,1.3l-.59-.46a5.39,5.39,0,0,1,3.65-1.59c1.56.1,9.29,2.49,9.62,2.59Z" style="fill:#CFD8DC"></path><path d="M156.71,144.61s-2.24-4.94-4.42-4.22-1.08,7.48,1.09,8.78a2.41,2.41,0,0,0,3.41-.68Z" style="fill: rgb(173, 99, 89);"></path><path d="M152.65,142.32s-.05,0,0,.06A6.07,6.07,0,0,1,155,146.7a1.32,1.32,0,0,0-1.89-.72s0,.09,0,.09a1.48,1.48,0,0,1,1.51.81,6.7,6.7,0,0,1,.52,1.44c.05.16.33.13.31,0v0C155.92,146.16,154.85,142.94,152.65,142.32Z" style="fill:#263238"></path></g><g id="freepik--character-2--inject-20"><path d="M428.07,394.19c.11,1.76-4.91,2.17-7,1a46,46,0,0,1-4.75-4.05C411.4,386.6,404.57,380,404.57,380l-5.19,2.22-21.17,7.72L364,362.47s12.26-4.92,23.91-9.32l5.27-1.95.32-.12c7.81-2.85,14.28-5,14.93-4.51C410.19,347.84,428,392.42,428.07,394.19Z" style="fill:#ad6359"></path><path d="M428.07,394.19c.11,1.76-4.91,2.17-7,1a46,46,0,0,1-4.75-4.05c5.22-.6-19.49-35.38-22.84-40.05,7.81-2.85,14.28-5,14.93-4.51C410.19,347.84,428,392.42,428.07,394.19Z" style="fill:#263238"></path><path d="M394.72,387.17s-39.14,8.87-66.65,7.38c-1.91-.1-3.74-.26-5.52-.47-9.71-1.15-13.54-19.52-9.71-25.4s18-13.95,25.51-19a10.25,10.25,0,0,0,3.43-4.68h27.66s6,6.85,3,12.2a2,2,0,0,1-.18.26l8.9-3.19Z" style="fill:#455a64"></path><path d="M394.72,387.17s-39.14,8.87-66.65,7.38L348.56,345l20.88,0s6,6.85,3,12.2a2,2,0,0,1-.18.26l8.9-3.19Z" style="fill:#263238"></path><path d="M382.89,372.18c-2.08-4.78-4.39-9.45-6.52-14.2,0-.09-.19,0-.15,0,2,4.79,3.85,9.64,5.94,14.39s4.36,9.46,6.56,14.18c0,.12.25.06.2-.07C386.9,381.75,385,376.93,382.89,372.18Z" style="fill:#455a64"></path><path d="M448.92,401.29c.1,1.76-4.92,2.17-7,1a48.4,48.4,0,0,1-4.75-4c-4.94-4.53-11.76-11.16-11.76-11.16l-5.19,2.22L399.06,397l-14.21-27.44s12.25-4.92,23.9-9.32L414,358.3l.32-.12c7.81-2.85,14.28-5,14.93-4.51C431,354.94,448.82,399.52,448.92,401.29Z" style="fill:#ad6359"></path><path d="M448.92,401.29c.1,1.76-4.92,2.17-7,1a48.4,48.4,0,0,1-4.75-4c5.23-.6-19.48-35.39-22.83-40.05,7.81-2.85,14.28-5,14.93-4.51C431,354.94,448.82,399.52,448.92,401.29Z" style="fill:#263238"></path><path d="M346.75,345h44s5.54,13.93,2.49,19.28-34.2,12.5-34.2,12.5L402,361.35l13.57,32.92s-47,10-74.46,6.65c-10.29-1.24-17.07-18.23-13.11-24,5.48-8,24.12-21.4,24.12-21.4Z" style="fill:#455a64"></path><path d="M400.88,361.25c-13.16,5.72-26.42,11.17-40,15.89-1.88.66-3.77,1.31-5.65,1.94s-3.91,1.43-5.91,1.95c-.1,0-.05.19,0,.15,1.72-.61,3.52-1,5.27-1.57s3.42-1.06,5.12-1.62l2.21-.74-.45.3c-.68.43-1.36.87-2,1.32-1.38.94-2.66,2.05-4.11,2.88-.09.05,0,.19.08.13,1.38-.94,2.92-1.63,4.33-2.52.69-.43,1.36-.87,2-1.33a14.38,14.38,0,0,0,1.78-1.32c2.16-.73,4.31-1.47,6.45-2.24q10.13-3.64,20-7.89c3.69-1.59,7.33-3.24,10.94-5C401.22,361.49,401.07,361.16,400.88,361.25Z" style="fill:#263238"></path><path d="M352.1,355.51A191.5,191.5,0,0,0,335,369a37.77,37.77,0,0,0-6.65,6.78,11.13,11.13,0,0,0-1.75,3.93,10.74,10.74,0,0,0,.23,4.91,31.87,31.87,0,0,0,5.08,10.28.08.08,0,0,0,.13-.09,29.2,29.2,0,0,1-4.28-9,12.72,12.72,0,0,1-.61-5.4,10.13,10.13,0,0,1,1.62-4,36,36,0,0,1,6.4-6.65c2.59-2.31,5.22-4.58,7.93-6.75,3-2.43,6.12-4.83,9.25-7.15C352.55,355.71,352.33,355.34,352.1,355.51Z" style="fill:#263238"></path><path d="M352,354.4l-.54-1.06c-.37-.73-.76-1.45-1.16-2.16-.8-1.46-1.72-2.85-2.57-4.28-.05-.08-.18,0-.13.09.72,1.47,1.38,3,2.15,4.43.37.7.74,1.39,1.14,2.08.19.34.39.69.59,1a3.41,3.41,0,0,0,.69,1c.09.06.24,0,.23-.1A3,3,0,0,0,352,354.4Z" style="fill:#263238"></path><path d="M404.5,379c-2.09-4.77-4.4-9.44-6.53-14.19,0-.09-.18-.05-.14.05,2,4.79,3.84,9.64,5.93,14.39s4.36,9.45,6.56,14.18c.06.12.26.06.2-.07C408.5,388.58,406.58,383.76,404.5,379Z" style="fill:#263238"></path><path d="M329.3,257.23c-4.76,6.95-4.63,16.88-4.63,16.88s-3.8,10.75-1.23,15.69a9.74,9.74,0,0,0,7.32,5.33l-1.11-2.8s2.59,3.38,9.18,3.69,14.56-3.2,18.48-6.22a17,17,0,0,0,5.32-6.81l-.83,4.53a12.73,12.73,0,0,0,8.48-8.56c2.4-7.2-9.81-14.58-11.07-16.43s-5.17-16.32-20.14-10.87C339.07,251.66,332.58,252.45,329.3,257.23Z" style="fill:#263238"></path><path d="M328.45,295.17a10,10,0,0,1-4.89-3.5,9.11,9.11,0,0,1-2.07-5.6,20.41,20.41,0,0,1,1.67-7.07c.86-2.35,1.89-4.65,2.71-7,0-.13-.15-.2-.22-.09a56.56,56.56,0,0,0-2.88,5.78,27.09,27.09,0,0,0-2,5.76A9.89,9.89,0,0,0,321,289a9.51,9.51,0,0,0,2.7,3.69,20.64,20.64,0,0,0,4.66,2.64C328.49,295.37,328.56,295.2,328.45,295.17Z" style="fill:#263238"></path><path d="M370.32,272c-2.88-5.05-8.39-7.57-12.24-11.72-2.08-2.25-3.85-4.84-6.36-6.66-.07,0-.15.06-.09.11,2.09,1.68,3.54,3.89,5.21,5.94a39.64,39.64,0,0,0,5.79,5.5c3.76,3.1,8.25,6.75,8.52,12,.12,2.43-.78,5.32-3.07,6.52a.08.08,0,0,0,.08.14,7.78,7.78,0,0,0,3.44-5.07A9.91,9.91,0,0,0,370.32,272Z" style="fill:#263238"></path><path d="M370.82,273.43a10.22,10.22,0,0,0-2.46-5.61,14.26,14.26,0,0,0-5.2-3.29c-2.18-.92-4.44-1.75-6.06-3.56-.06-.07-.17,0-.1.12,2.58,3,6.58,3.85,9.62,6.21,3.47,2.69,4.36,7.4,3.09,11.47a16.72,16.72,0,0,1-4.09,6.59s0,.08.05,0C368.86,282.31,371.38,278,370.82,273.43Z" style="fill:#263238"></path><path d="M352.32,295.51c-1.36,7.7-7.75,35.9-16.11,42.76-5.64,4.62-31.59,3-38,1.65-2.64-.53-.57-18.68,2.21-19.42,3-.8,22.83.93,24.65-.21s12.15-17.62,19.15-26.26C348.36,288.85,353.08,291.18,352.32,295.51Z" style="fill:#ad6359"></path><path d="M289.59,318.35c-2.2,0-15.68,4.72-17.79,6.77s-2.49,10.79-1.89,12,5,3.06,6.63,2.22-1.64-3.41-1.6-4.22a29.61,29.61,0,0,1,1.38-5.28c.28-.43,5.93-2.73,6.69-2.79S289.59,318.35,289.59,318.35Z" style="fill:#ad6359"></path><path d="M307.55,341c-.49.07-7.7-.41-12.57.47-2.86-2.53-6-7.22-7.66-8.38-.65-.65-1.25-2.89-2.22-3.64-1.46-1.13-6.48-.33-7.1,0-.36.2-1.09,1.57-2.23,3-1.52,1.85-3.56,4-5.39,4.9a2.62,2.62,0,0,1-2.69.05c-1.37-.94.31-2.72,2.3-6.56,3.07-5.93,3.43-7.34,6.34-8.62,6.11-2.69,11.22-4.37,13.26-3.82s14.86,1.93,14.86,1.93C311.76,329.07,308.56,340.85,307.55,341Z" style="fill:#ad6359"></path><path d="M274.05,323.68a15.82,15.82,0,0,0-1.21,1.7c-.36.57-.7,1.16-1,1.75-.68,1.23-1.29,2.49-1.87,3.77h0c.62-1.23,1.41-2.37,2.09-3.57.34-.59.68-1.18,1-1.77s.75-1.19,1-1.82A0,0,0,0,0,274.05,323.68Z" style="fill:#37474f"></path><path d="M277.32,330.21a32.41,32.41,0,0,1-7.19,7.13c-.09.05-.05.13,0,.09a19.74,19.74,0,0,0,7.17-7.21S277.32,330.2,277.32,330.21Z" style="fill:#37474f"></path><path d="M288.48,314.18s2.1-3.79,4.57-2.15-.22,5-.22,5Z" style="fill:#ad6359"></path><rect x="279.73" y="312.94" width="5.22" height="30.43" transform="translate(228.63 -101.4) rotate(33.58)" style="fill:#CFD8DC"></rect><rect x="287.46" y="315.24" width="6.1" height="1.21" transform="translate(223.19 -107.97) rotate(33.58)" style="fill:#37474f"></rect><rect x="286.72" y="316.35" width="6.1" height="1.21" transform="translate(223.68 -107.38) rotate(33.58)" style="fill:#37474f"></rect><path d="M276.1,342.28l-3.72,2-1.22.68.14-1.4.44-4.21.86-.34V340l.86-.33s0,.9,0,.91l.85-.34s0,.91,0,.92l.85-.34s0,.9,0,.92l.85-.35S276.09,342.26,276.1,342.28Z" style="fill:#fff"></path><polygon points="272.38 344.32 271.16 345 271.3 343.6 272.38 344.32" style="fill:#37474f"></polygon><path d="M295,341.44c-1.66.31-3.14.6-4.13.82a12.09,12.09,0,0,1-8.86-1.1c-2.44-1.22-10.48.53-8.31-3.42s10.49-1.85,11.45-2.57,2.11-1.88,1.92-2.46c1.44.9,6.17.27,7.93,2.46C296,336.41,294,340.53,295,341.44Z" style="fill:#ad6359"></path><path d="M352.4,298.76c-1.65,8.91-8.74,36.49-16.29,40.82a16.45,16.45,0,0,1-3.87,1.5c-.85.23-1.76.43-2.7.61l-.78.14c-9.26,1.54-21.66.81-21.66.81l-3.82-24.39s19.11,2.36,20.52,1.39,10.56-12.48,17.75-23.05c2.26-3.31,4.34-5.21,6.07-6C351.4,288.92,353.54,292.64,352.4,298.76Z" style="fill:#CFD8DC"></path><path d="M342.58,298a.47.47,0,1,1-.47-.47A.47.47,0,0,1,342.58,298Zm8.14-.47a.47.47,0,1,0,.47.47A.47.47,0,0,0,350.72,297.49Zm-4.31-6a.47.47,0,1,0,.47.47A.47.47,0,0,0,346.41,291.46ZM333.5,310a.47.47,0,1,0,.47.47A.47.47,0,0,0,333.5,310Zm8.61,0a.47.47,0,1,0,.47.47A.47.47,0,0,0,342.11,310Zm-4.31-6a.47.47,0,1,0,.47.47A.47.47,0,0,0,337.8,304Zm8.61,0a.47.47,0,1,0,.47.47A.47.47,0,0,0,346.41,304Zm-38.74,18.55a.47.47,0,1,0,.47.47A.47.47,0,0,0,307.67,322.53Zm8.61,0a.47.47,0,1,0,.47.47A.47.47,0,0,0,316.28,322.53Zm8.61,0a.47.47,0,1,0,.47.47A.47.47,0,0,0,324.89,322.53Zm8.61,0a.47.47,0,1,0,.47.47A.47.47,0,0,0,333.5,322.53Zm8.61,0a.47.47,0,1,0,.47.47A.47.47,0,0,0,342.11,322.53Zm-12.92-6a.47.47,0,1,0,.47.47A.47.47,0,0,0,329.19,316.5Zm8.61,0a.47.47,0,1,0,.47.47A.47.47,0,0,0,337.8,316.5Zm8.61,0a.47.47,0,1,0,.47.47A.47.47,0,0,0,346.41,316.5Zm-38.74,18.55a.47.47,0,1,0,.47.47A.47.47,0,0,0,307.67,335.05Zm8.61,0a.47.47,0,1,0,.47.47A.47.47,0,0,0,316.28,335.05Zm8.61,0a.47.47,0,1,0,.47.47A.47.47,0,0,0,324.89,335.05Zm8.61,0a.47.47,0,1,0,.47.47A.47.47,0,0,0,333.5,335.05ZM312,329a.47.47,0,1,0,0,.94.47.47,0,0,0,0-.94Zm8.6,0a.47.47,0,1,0,.47.47A.47.47,0,0,0,320.58,329Zm8.61,0a.47.47,0,1,0,.47.47A.47.47,0,0,0,329.19,329Zm8.61,0a.47.47,0,1,0,.47.47A.47.47,0,0,0,337.8,329ZM312,341.54a.47.47,0,1,0,0,.94.47.47,0,0,0,0-.94Zm8.6,0a.47.47,0,1,0,.47.47A.47.47,0,0,0,320.58,341.54Zm8.61,0a.46.46,0,0,0-.43.29l.78-.14A.45.45,0,0,0,329.19,341.54Z" style="fill:#fff"></path><path d="M352.4,298.76c-1.65,8.91-8.74,36.49-16.29,40.82a16.45,16.45,0,0,1-3.87,1.5l15.38-50.47C351.4,288.92,353.54,292.64,352.4,298.76Z" style="fill:#263238"></path><path d="M392,346c-.25,0-11.47.9-23.81,1.65l-.47,0-7.44.43a3.4,3.4,0,0,1-.45,0l-.91.05c-10.77.59-20.09,1-20.47.73-.7-.54,1.58-25.42,3.28-38.2,0-.18,0-.35.07-.52.3-2.19.57-4,.8-5.18,1.19-6.12,3.41-11.69,6-14.17,2.31-2.17,7.27-6.22,13.93-3.05a6.14,6.14,0,0,1,.57.29l.63.37C384.14,301.18,392.61,345,392,346Z" style="fill:#CFD8DC"></path><path d="M351.26,298a.47.47,0,1,1-.47-.47A.47.47,0,0,1,351.26,298Zm8.13-.47a.47.47,0,1,0,.47.47A.47.47,0,0,0,359.39,297.49Zm8.61,0a.47.47,0,1,0,.47.47A.47.47,0,0,0,368,297.49Zm-12.91-6a.47.47,0,1,0,.47.47A.47.47,0,0,0,355.09,291.46Zm8.61,0a.47.47,0,1,0,.47.47A.47.47,0,0,0,363.7,291.46ZM342.18,310a.44.44,0,0,0-.35.15c0,.17-.05.34-.07.52a.46.46,0,0,0,.42.27.47.47,0,0,0,.46-.48A.45.45,0,0,0,342.18,310Zm8.61,0a.47.47,0,1,0,.47.47A.47.47,0,0,0,350.79,310Zm8.6,0a.47.47,0,1,0,.47.47A.47.47,0,0,0,359.39,310Zm8.61,0a.47.47,0,1,0,.47.47A.47.47,0,0,0,368,310Zm8.61,0a.47.47,0,1,0,.47.47A.47.47,0,0,0,376.61,310Zm-30.13-6a.47.47,0,1,0,.47.47A.47.47,0,0,0,346.48,304Zm8.61,0a.47.47,0,1,0,.47.47A.47.47,0,0,0,355.09,304Zm8.61,0a.47.47,0,1,0,.47.47A.47.47,0,0,0,363.7,304Zm8.61,0a.47.47,0,1,0,.47.47A.47.47,0,0,0,372.31,304Zm-30.13,18.55a.47.47,0,1,0,.47.47A.47.47,0,0,0,342.18,322.53Zm8.61,0a.47.47,0,1,0,.47.47A.47.47,0,0,0,350.79,322.53Zm8.6,0a.47.47,0,1,0,.47.47A.47.47,0,0,0,359.39,322.53Zm8.61,0a.47.47,0,1,0,.47.47A.47.47,0,0,0,368,322.53Zm8.61,0a.47.47,0,1,0,.47.47A.47.47,0,0,0,376.61,322.53Zm8.61,0a.47.47,0,1,0,.47.47A.47.47,0,0,0,385.22,322.53Zm-38.74-6a.47.47,0,1,0,.47.47A.47.47,0,0,0,346.48,316.5Zm8.61,0a.47.47,0,1,0,.47.47A.47.47,0,0,0,355.09,316.5Zm8.61,0a.47.47,0,1,0,.47.47A.47.47,0,0,0,363.7,316.5Zm8.61,0a.47.47,0,1,0,.47.47A.47.47,0,0,0,372.31,316.5Zm8.61,0a.47.47,0,1,0,.47.47A.47.47,0,0,0,380.92,316.5Zm-38.74,18.55a.47.47,0,1,0,.47.47A.47.47,0,0,0,342.18,335.05Zm8.61,0a.47.47,0,1,0,.47.47A.47.47,0,0,0,350.79,335.05Zm8.6,0a.47.47,0,1,0,.47.47A.47.47,0,0,0,359.39,335.05Zm8.61,0a.47.47,0,1,0,.47.47A.47.47,0,0,0,368,335.05Zm8.61,0a.47.47,0,1,0,.47.47A.47.47,0,0,0,376.61,335.05Zm8.61,0a.47.47,0,1,0,.47.47A.47.47,0,0,0,385.22,335.05Zm-38.74-6a.47.47,0,1,0,.47.47A.47.47,0,0,0,346.48,329Zm8.61,0a.47.47,0,1,0,.47.47A.47.47,0,0,0,355.09,329Zm8.61,0a.47.47,0,1,0,.47.47A.47.47,0,0,0,363.7,329Zm8.61,0a.47.47,0,1,0,.47.47A.47.47,0,0,0,372.31,329Zm8.61,0a.47.47,0,1,0,.47.47A.47.47,0,0,0,380.92,329Zm-38.74,18.55a.47.47,0,1,0,.47.47A.47.47,0,0,0,342.18,347.57Zm8.61,0a.47.47,0,1,0,.47.47A.47.47,0,0,0,350.79,347.57Zm8.6,0a.45.45,0,0,0-.46.46.59.59,0,0,0,0,.13l.91-.05a.25.25,0,0,0,0-.08A.47.47,0,0,0,359.39,347.57Zm8.62,0a.45.45,0,0,0-.26.08l.47,0A.5.5,0,0,0,368,347.57Zm-21.53-6a.47.47,0,1,0,.47.47A.47.47,0,0,0,346.48,341.54Zm8.61,0a.47.47,0,1,0,.47.47A.47.47,0,0,0,355.09,341.54Zm8.61,0a.47.47,0,1,0,.47.47A.47.47,0,0,0,363.7,341.54Zm8.61,0a.47.47,0,1,0,.47.47A.47.47,0,0,0,372.31,341.54Zm8.61,0a.47.47,0,1,0,.47.47A.47.47,0,0,0,380.92,341.54Zm8.61,0a.47.47,0,1,0,.47.47A.47.47,0,0,0,389.53,341.54Z" style="fill:#fff"></path><path d="M392.09,346c0,.07-16.95,1.2-31.78,2l2.86-60,.63.37C384.14,301.18,392.66,345.05,392.09,346Z" style="fill:#263238"></path><path d="M351.51,288c-4.28,2.94-10.49,13.8-8.3,15.09s5.43-3.36,5.43-3.36.45,6.79,4,6.13c4.78-.9,6.62-12.8,6.49-15.95S357,284.24,351.51,288Z" style="fill:#fff"></path><path d="M357,290.36c-.08,1-3.76,8.11-8.28,8.6-1.47.16-2.69-7.83-2.69-7.83l-.22-.57-3.14-8,8.73-7.74,1.27-1.05s.71,2.24,1.58,5l.12.39.15.46c.13.41.27.84.39,1.26s.2.64.29,1,.18.67.28,1A56.81,56.81,0,0,1,357,290.36Z" style="fill:#ad6359"></path><path d="M354.24,278.84a17.19,17.19,0,0,1-8.44,11.72l-3.14-8,8.73-7.74,1.27-1.05S353.37,276,354.24,278.84Z" style="fill:#263238"></path><path d="M328.05,272.13c1,15.95,10.7,17.13,14.14,16.9,3.12-.2,13.73-1.29,14.35-17.27s-7.11-20.53-14.28-20.44S327,256.18,328.05,272.13Z" style="fill:#ad6359"></path><path d="M330.43,271.44a9.16,9.16,0,0,0,1-.37,1.73,1.73,0,0,0,1-.58.58.58,0,0,0-.09-.69,1.44,1.44,0,0,0-1.42-.14,2.07,2.07,0,0,0-1.19.9A.6.6,0,0,0,330.43,271.44Z" style="fill:#263238"></path><path d="M341.26,270.5a10.36,10.36,0,0,1-1.1-.08,1.76,1.76,0,0,1-1.1-.3.57.57,0,0,1-.1-.69,1.43,1.43,0,0,1,1.34-.51,2.12,2.12,0,0,1,1.38.55A.61.61,0,0,1,341.26,270.5Z" style="fill:#263238"></path><path d="M340.06,272.72c1.72-.33,2.25,3.15.65,3.45S338.61,273,340.06,272.72Z" style="fill:#263238"></path><path d="M340.77,272.8c.33.15.68.45,1.05.43s.69-.43.92-.82c0,0,.06,0,.06,0a1.28,1.28,0,0,1-.74,1.59c-.64.19-1.19-.33-1.46-1C340.55,272.94,340.63,272.74,340.77,272.8Z" style="fill:#263238"></path><path d="M332.24,273.52c-1.75.14-1.34,3.63.28,3.5S333.7,273.4,332.24,273.52Z" style="fill:#263238"></path><path d="M331.54,273.83c-.26.22-.49.59-.82.65s-.7-.27-1-.61c0,0-.05,0-.05.05.06.67.37,1.34,1,1.39s1-.58,1-1.26C331.76,273.92,331.64,273.74,331.54,273.83Z" style="fill:#263238"></path><path d="M340.91,282.29c-.21.3-.39.7-.77.81a3.09,3.09,0,0,1-1.21,0,0,0,0,0,0,0,.06,1.46,1.46,0,0,0,1.47.31,1.15,1.15,0,0,0,.65-1.11C341,282.26,340.94,282.25,340.91,282.29Z" style="fill:#263238"></path><path d="M335.86,279s0,1.64.11,2.4c0,.07.2.08.46.06h0a3.63,3.63,0,0,0,3.31-1.84c.05-.08-.06-.14-.12-.09a5.5,5.5,0,0,1-3.17,1.41c-.08-.21.09-2.84,0-2.81-.49.16-1.35.51-1.67.63,0-1.06.05-4.09,0-6,0-.12-.19-.14-.2,0a51.27,51.27,0,0,0-.49,6.81C334.09,279.72,335.57,279.19,335.86,279Z" style="fill:#263238"></path><path d="M336.41,280.89a4.39,4.39,0,0,0,1.81,1.34,2,2,0,0,0,1.22,0c.88-.25.88-1.06.71-1.75a4.75,4.75,0,0,0-.43-1A5.76,5.76,0,0,1,336.41,280.89Z" style="fill:#263238"></path><path d="M338.22,282.23a2,2,0,0,0,1.22,0c.88-.25.88-1.06.71-1.75A2.08,2.08,0,0,0,338.22,282.23Z" style="fill:#ff9cbd"></path><path d="M356.45,273.29a6.56,6.56,0,0,1-4.69-4.47,17,17,0,0,1-8-4.06c.17.3,1.41,2.46,2.07,3.54-10.26.22-14.9-6.69-14.9-6.69a17.42,17.42,0,0,0-3,7.16s-1.35-6,.92-10.75a10,10,0,0,1,8.17-5.92,14.26,14.26,0,0,1,14.51,1.34C359.45,259.08,356.45,273.29,356.45,273.29Z" style="fill:#263238"></path><path d="M338,268.24a18.78,18.78,0,0,0,5.46.79s0,0,0,0a15.82,15.82,0,0,1-8.17-2.86,15.06,15.06,0,0,1-2.76-2.53,10.47,10.47,0,0,1-2.1-3.49c0-.1-.18-.05-.15,0a12.24,12.24,0,0,0,1.6,3.73,11.15,11.15,0,0,0,2.88,2.81,13,13,0,0,0,3.24,1.53" style="fill:#263238"></path><path d="M354.09,273.15s2.7-5.45,5.12-4.56.92,8.43-1.56,9.81a2.71,2.71,0,0,1-3.8-.9Z" style="fill:#ad6359"></path><path d="M358.73,270.74s0,0,0,.07c-1.73,1-2.44,2.88-2.85,4.75a1.5,1.5,0,0,1,2.15-.74c.05,0,0,.11,0,.11a1.66,1.66,0,0,0-1.72.85,7.56,7.56,0,0,0-.64,1.59c-.06.18-.38.14-.34-.06v-.05C354.91,274.92,356.24,271.36,358.73,270.74Z" style="fill:#263238"></path><polygon points="350.49 268.27 354.54 264.85 355.36 266 350.96 268.91 350.49 268.27" style="fill:#CFD8DC"></polygon><polygon points="351.19 269.44 355.78 266.79 356.39 268.06 351.54 270.15 351.19 269.44" style="fill:#CFD8DC"></polygon><path d="M369.72,292.91c10.89,12,28.62,39.2,20.54,46-10,8.4-46.29,5-53.06,5.13-2.94.05-4.33-18.16-2-20.31s33-1.52,34.45-3.38c.59-.77-5.33-12.6-8.76-23.5C357.24,285.27,366.49,289.33,369.72,292.91Z" style="fill:#ad6359"></path><path d="M340.52,322.6s-6,.12-7.34.25-14.81-2.73-19.08-.09c-3,1.88-9.87,10.3-9.19,16,.41,3.43,4.2,3.66,4.2,3.66A4,4,0,0,0,315,345a3.67,3.67,0,0,0,2.73,2.52,3.71,3.71,0,0,0,3.88-1,6.75,6.75,0,0,0,4.22,2.11c3.89.32,9.15-1.85,9.77-3.41,1-2.56-3.43-2.66-6.48-2.39,0,0,1.1-.08,1.32-1.62,0,0,1.73,4.06,11.1,2.31Z" style="fill:#ad6359"></path><path d="M326.3,329.58a25.06,25.06,0,0,0-4.92,8.24c-1.14,2.85-1.73,6,0,8.76.07.12.26,0,.19-.09-1.55-3.13-.56-6.38.77-9.4a28.44,28.44,0,0,1,4.14-7.32C326.63,329.65,326.42,329.46,326.3,329.58Z" style="fill:#263238"></path><path d="M320.37,328.37c-3.62,3.94-8.09,11.15-5.47,16.63a.06.06,0,0,0,.11,0c-1.42-6,2.24-11.72,5.52-16.46C320.6,328.41,320.45,328.28,320.37,328.37Z" style="fill:#263238"></path><path d="M314.92,326.85a22.5,22.5,0,0,0-5,6.94,11.47,11.47,0,0,0-1,8.6.06.06,0,1,0,.12,0c-.58-5.95,2.18-11,6-15.37C315.17,326.9,315,326.77,314.92,326.85Z" style="fill:#263238"></path><path d="M331.37,342.3a3.62,3.62,0,0,1-.42-.36,2.72,2.72,0,0,1-.56-.77.29.29,0,0,0,0-.09,2.86,2.86,0,0,0-.89-2.19s-.07,0,0,0a3.66,3.66,0,0,1,.49,2.12,3.77,3.77,0,0,1-.5,1.35,13.37,13.37,0,0,0-4,1.15.15.15,0,0,0,.1.27c1-.2,2.89-.69,3.9-.77,2.83-.23,4.69-.33,6.1,1.11,0,0,.07,0,.05,0A5.17,5.17,0,0,0,331.37,342.3Zm-1-.82a1.82,1.82,0,0,0,.28.58,1.88,1.88,0,0,0,.18.24c-.24,0-.47,0-.71,0A3.19,3.19,0,0,0,330.35,341.48Z" style="fill:#263238"></path><path d="M394.23,335.28h0c0,.17,0,.31,0,.46a5.22,5.22,0,0,1-1.81,4.23,12.83,12.83,0,0,1-2.88,1.56h0l-.26.09c-12.28,4.77-43.48,4.11-43.48,4.11l-5.24-25.47s27.64-.06,27.93-.82-3.63-6.27-7.58-20,1.69-13.79,7.91-7.68C375.54,298.4,394,323.73,394.23,335.28Z" style="fill:#CFD8DC"></path><path d="M368.47,298a.47.47,0,1,1-.47-.47A.47.47,0,0,1,368.47,298Zm-4.77-6.5a.47.47,0,1,0,.47.47A.47.47,0,0,0,363.7,291.46ZM368,310a.47.47,0,1,0,.47.47A.47.47,0,0,0,368,310Zm8.61,0a.47.47,0,1,0,.47.47A.47.47,0,0,0,376.61,310Zm-12.91-6a.47.47,0,1,0,.47.47A.47.47,0,0,0,363.7,304Zm8.61,0a.47.47,0,1,0,.47.47A.47.47,0,0,0,372.31,304Zm-30.13,18.55a.47.47,0,1,0,.47.47A.47.47,0,0,0,342.18,322.53Zm8.61,0a.47.47,0,1,0,.47.47A.47.47,0,0,0,350.79,322.53Zm8.6,0a.47.47,0,1,0,.47.47A.47.47,0,0,0,359.39,322.53Zm8.61,0a.47.47,0,1,0,.47.47A.47.47,0,0,0,368,322.53Zm8.61,0a.47.47,0,1,0,.47.47A.47.47,0,0,0,376.61,322.53Zm8.61,0a.47.47,0,1,0,.47.47A.47.47,0,0,0,385.22,322.53Zm-12.91-6a.47.47,0,1,0,.47.47A.47.47,0,0,0,372.31,316.5Zm8.61,0a.47.47,0,1,0,.47.47A.47.47,0,0,0,380.92,316.5Zm-30.13,18.55a.47.47,0,1,0,.47.47A.47.47,0,0,0,350.79,335.05Zm8.6,0a.47.47,0,1,0,.47.47A.47.47,0,0,0,359.39,335.05Zm8.61,0a.47.47,0,1,0,.47.47A.47.47,0,0,0,368,335.05Zm8.61,0a.47.47,0,1,0,.47.47A.47.47,0,0,0,376.61,335.05Zm8.61,0a.47.47,0,1,0,.47.47A.47.47,0,0,0,385.22,335.05Zm8.61,0a.48.48,0,0,0-.47.48.46.46,0,0,0,.47.46.4.4,0,0,0,.39-.23c0-.15,0-.29,0-.46h0A.45.45,0,0,0,393.83,335Zm-47.35-6a.47.47,0,1,0,.47.47A.47.47,0,0,0,346.48,329Zm8.61,0a.47.47,0,1,0,.47.47A.47.47,0,0,0,355.09,329Zm8.61,0a.47.47,0,1,0,.47.47A.47.47,0,0,0,363.7,329Zm8.61,0a.47.47,0,1,0,.47.47A.47.47,0,0,0,372.31,329Zm8.61,0a.47.47,0,1,0,.47.47A.47.47,0,0,0,380.92,329Zm8.61,0a.47.47,0,1,0,.47.47A.47.47,0,0,0,389.53,329Zm-43,12.52a.47.47,0,1,0,.47.47A.47.47,0,0,0,346.48,341.54Zm8.61,0a.47.47,0,1,0,.47.47A.47.47,0,0,0,355.09,341.54Zm8.61,0a.47.47,0,1,0,.47.47A.47.47,0,0,0,363.7,341.54Zm8.61,0a.47.47,0,1,0,.47.47A.47.47,0,0,0,372.31,341.54Zm8.61,0a.47.47,0,1,0,.47.47A.47.47,0,0,0,380.92,341.54Z" style="fill:#fff"></path><path d="M374.78,318.85c-1.52,0-3,.12-4.58.2l.38-.17a25.38,25.38,0,0,1,2.41-1,.08.08,0,0,0-.05-.15c-.81.3-1.63.56-2.45.83l-1.2.41c-.14,0-.26.1-.39.15-2.52.16-28.64.93-28.62,1a24,24,0,0,0,.62,2.64c.07.08.18,0,.19-.08a11.44,11.44,0,0,0-.35-2.18c2.23,0,22.15-.32,26.66-.73l1.09-.09a.91.91,0,0,0,.23,0c2-.18,4.07-.38,6.08-.72C374.86,319,374.84,318.85,374.78,318.85Z" style="fill:#263238"></path><path d="M384.86,342.77c-2.51.25-5,.82-7.5,1.19s-5.1.67-7.66.93q-7.56.75-15.17.86c-1.43,0-2.85,0-4.28,0s-4.21-.1-4.22-.13c-.06-.22-.44-1.18-.46-1.29s-.19-.05-.15,0,.34,1.43.38,1.45,0,0,0,0a28.41,28.41,0,0,0,3.69.32c1.27.06,2.53.11,3.8.13q3.87.09,7.72-.08a126.76,126.76,0,0,0,15.19-1.59c1.45-.24,2.9-.5,4.34-.79a42.53,42.53,0,0,0,4.31-1C384.94,342.87,384.93,342.76,384.86,342.77Z" style="fill:#263238"></path></g><g id="freepik--Table--inject-20"><rect x="233.21" y="344.85" width="137.88" height="6.62" style="fill:#37474f"></rect><polygon points="248.67 351.47 248.17 364.09 246.55 405.52 241.85 405.52 240.22 364.09 239.72 351.47 248.67 351.47" style="fill:#37474f"></polygon><polygon points="248.67 351.47 248.17 364.09 240.22 364.09 239.72 351.47 248.67 351.47" style="fill:#263238"></polygon><polygon points="364.59 351.47 364.09 364.09 362.47 405.52 357.77 405.52 356.14 364.09 355.64 351.47 364.59 351.47" style="fill:#37474f"></polygon><polygon points="364.59 351.47 364.09 364.09 356.14 364.09 355.64 351.47 364.59 351.47" style="fill:#263238"></polygon></g><g id="freepik--Books--inject-20"><rect x="163.29" y="416.67" width="7.07" height="14.27" style="fill:#37474f"></rect><rect x="172.98" y="416.67" width="2.95" height="14.27" style="fill:#37474f"></rect><rect x="158.79" y="416.67" width="72.33" height="14.27" style="fill:#CFD8DC"></rect><rect x="215.55" y="416.67" width="7.07" height="14.27" style="fill:#37474f"></rect><rect x="154.59" y="406.02" width="50.17" height="10.65" style="fill:#455a64"></rect><rect x="204.77" y="406.02" width="21.65" height="10.65" style="fill:#455a64"></rect><rect x="154.59" y="407.12" width="50.17" height="8.44" style="fill:#fff"></rect><path d="M157.84,408.86c3.91-.09,7.82-.16,11.73-.19l11.73-.06,11.73.06c3.91,0,7.83.1,11.74.19-3.91.09-7.83.16-11.74.19l-11.73.06-11.73-.06C165.66,409,161.75,409,157.84,408.86Z" style="fill:#dbdbdb"></path><path d="M157.84,410.52c3.91-.1,7.82-.16,11.73-.2l11.73-.05,11.73.05c3.91,0,7.83.1,11.74.2-3.91.09-7.83.15-11.74.19l-11.73.06-11.73-.06Q163.7,410.65,157.84,410.52Z" style="fill:#dbdbdb"></path><path d="M157.84,412.17c3.91-.09,7.82-.16,11.73-.19l11.73-.06L193,412c3.91,0,7.83.1,11.74.19-3.91.09-7.83.16-11.74.19l-11.73.06-11.73-.06C165.66,412.33,161.75,412.26,157.84,412.17Z" style="fill:#dbdbdb"></path><path d="M157.84,413.83c3.91-.09,7.82-.16,11.73-.19l11.73-.06,11.73.05c3.91,0,7.83.1,11.74.2-3.91.09-7.83.16-11.74.19l-11.73.06L169.57,414C165.66,414,161.75,413.92,157.84,413.83Z" style="fill:#dbdbdb"></path><rect x="189.45" y="364.47" width="42.03" height="14.63" transform="translate(420.93 743.58) rotate(180)" style="fill:#455a64"></rect><rect x="171.31" y="364.47" width="18.14" height="14.63" transform="translate(360.76 743.58) rotate(180)" style="fill:#455a64"></rect><rect x="189.45" y="365.99" width="42.03" height="11.6" transform="translate(420.93 743.58) rotate(180)" style="fill:#fff"></rect><path d="M228.76,375.2c-3.27.1-6.55.16-9.83.2l-9.82.05-9.83-.05c-3.28,0-6.56-.1-9.83-.2q4.91-.13,9.83-.19l9.83-.06,9.82.06Q223.85,375.07,228.76,375.2Z" style="fill:#dbdbdb"></path><path d="M228.76,372.93c-3.27.09-6.55.16-9.83.19l-9.82.06-9.83-.06c-3.28,0-6.56-.1-9.83-.19,3.27-.09,6.55-.16,9.83-.19l9.83-.06,9.82.06C222.21,372.77,225.49,372.84,228.76,372.93Z" style="fill:#dbdbdb"></path><path d="M228.76,370.65c-3.27.1-6.55.16-9.83.2l-9.82,0-9.83,0c-3.28,0-6.56-.1-9.83-.2q4.91-.13,9.83-.19l9.83-.06,9.82.06Q223.85,370.52,228.76,370.65Z" style="fill:#dbdbdb"></path><path d="M228.76,368.38c-3.27.09-6.55.16-9.83.19l-9.82.06-9.83-.06c-3.28,0-6.56-.1-9.83-.19,3.27-.09,6.55-.16,9.83-.19l9.83-.06,9.82.06C222.21,368.22,225.49,368.29,228.76,368.38Z" style="fill:#dbdbdb"></path><rect x="159.07" y="396.09" width="66.11" height="9.97" style="fill:#CFD8DC"></rect><rect x="165.29" y="398.13" width="25.43" height="5.99" style="fill:#fff"></rect><rect x="167.92" y="379.11" width="50.21" height="16.94" style="fill:#37474f"></rect><rect x="208.13" y="379.11" width="4.68" height="16.94" style="fill:#CFD8DC"></rect><rect x="203.24" y="379.11" width="1.81" height="16.94" style="fill:#CFD8DC"></rect><polygon points="195.59 423.88 269.77 410 302.32 430.61 229.39 449.16 195.59 423.88" style="fill:#455a64"></polygon><path d="M200.13,423.88l30.94,23.22,68.35-17.33L267.94,410s-20.16,1.18-21.11,1.4-10,3.24-10,3.24-12.51,1.25-13.37,1.47S200.13,423.88,200.13,423.88Z" style="fill:#fff"></path><path d="M236.8,414.64q3.81,2.82,7.55,5.71l7.47,5.83,7.4,5.91q3.67,3,7.31,6-3.79-2.83-7.55-5.72l-7.47-5.82-7.39-5.92Q240.43,417.68,236.8,414.64Z" style="fill:#dbdbdb"></path><path d="M207.29,424.21q3.57-1.4,7.17-2.7c2.4-.87,4.81-1.7,7.23-2.53l1.82-.59.94-.28c.32-.07.63-.1,1-.15l3.8-.53c2.53-.35,5.07-.67,7.6-.95q-3.77.7-7.53,1.32l-3.78.61c-.31,0-.63.09-.94.16s-.59.18-.89.27l-1.81.61-7.26,2.43C212.16,422.68,209.73,423.45,207.29,424.21Z" style="fill:#dbdbdb"></path><path d="M209.45,425.7q3.57-1.38,7.18-2.69c2.39-.87,4.81-1.7,7.22-2.53l1.83-.59c.31-.1.6-.2.93-.28s.64-.1.95-.15l3.8-.54q3.79-.51,7.61-.95c-2.51.47-5,.92-7.54,1.33l-3.77.61c-.32,0-.64.09-.94.15s-.6.19-.9.28L224,421l-7.26,2.42C214.33,424.17,211.89,425,209.45,425.7Z" style="fill:#dbdbdb"></path><path d="M211.62,427.2c2.33-.91,4.66-1.79,7-2.63s4.7-1.67,7.06-2.48l1.78-.59a11.06,11.06,0,0,1,1.84-.49c1.23-.2,2.46-.39,3.7-.54,2.48-.34,5-.64,7.44-.9q-3.69.68-7.38,1.28l-3.69.61a10.56,10.56,0,0,0-1.76.5l-1.77.6-7.1,2.36C216.38,425.71,214,426.46,211.62,427.2Z" style="fill:#dbdbdb"></path><path d="M213.78,428.7q3.45-1.35,6.91-2.6c2.31-.85,4.64-1.64,7-2.45,1.18-.38,2.31-.79,3.55-1.1s2.44-.38,3.66-.54c2.43-.33,4.88-.62,7.32-.88q-3.63.67-7.26,1.27l-3.63.6c-1.14.29-2.32.75-3.48,1.12l-7,2.34C218.48,427.23,216.13,428,213.78,428.7Z" style="fill:#dbdbdb"></path><path d="M216,430.19c2.28-.89,4.58-1.75,6.88-2.58s4.62-1.64,6.94-2.44c1.17-.39,2.3-.79,3.53-1.11s2.43-.38,3.65-.54q3.65-.5,7.3-.88c-2.41.45-4.83.87-7.24,1.27l-3.62.6c-1.13.31-2.31.75-3.47,1.13L223,428C220.63,428.73,218.29,429.47,216,430.19Z" style="fill:#dbdbdb"></path><path d="M218.11,431.69q3.42-1.33,6.86-2.58c2.3-.84,4.61-1.63,6.92-2.43,1.16-.39,2.29-.78,3.52-1.11s2.42-.39,3.63-.55c2.42-.32,4.85-.62,7.28-.87q-3.6.68-7.22,1.27c-1.2.2-2.42.38-3.6.6s-2.3.75-3.45,1.13l-7,2.31Q221.62,430.62,218.11,431.69Z" style="fill:#dbdbdb"></path><path d="M220.28,433.19c2.25-.88,4.5-1.73,6.77-2.55s4.54-1.61,6.82-2.4c1.15-.39,2.28-.77,3.46-1.12s2.39-.39,3.59-.56q3.59-.48,7.19-.86c-2.38.45-4.75.86-7.13,1.26-1.18.21-2.4.36-3.54.61s-2.27.76-3.41,1.13L227.17,431C224.88,431.75,222.58,432.47,220.28,433.19Z" style="fill:#dbdbdb"></path><path d="M222.44,434.68c2.25-.87,4.51-1.73,6.77-2.54s4.55-1.61,6.83-2.4c1.14-.4,2.27-.77,3.45-1.12s2.4-.39,3.6-.57q3.58-.48,7.18-.85c-2.37.45-4.75.86-7.12,1.26-1.18.21-2.4.35-3.54.61s-2.28.76-3.42,1.13l-6.85,2.29C227.05,433.25,224.75,434,222.44,434.68Z" style="fill:#dbdbdb"></path><path d="M224.21,436.35c2.28-.89,4.57-1.76,6.87-2.59s4.61-1.64,6.92-2.45c1.15-.41,2.31-.78,3.49-1.15s2.44-.41,3.65-.59q3.65-.49,7.3-.87-3.62.68-7.23,1.27c-1.2.22-2.45.35-3.58.64l-3.47,1.16-7,2.34C228.88,434.88,226.55,435.62,224.21,436.35Z" style="fill:#dbdbdb"></path><path d="M226.38,437.9c2.27-.89,4.55-1.77,6.84-2.61s4.6-1.64,6.9-2.46c1.15-.41,2.31-.78,3.48-1.15s2.43-.42,3.64-.61c2.42-.32,4.85-.62,7.28-.86-2.4.45-4.81.86-7.22,1.27-1.18.21-2.44.34-3.56.64l-3.46,1.17-6.94,2.35C231,436.42,228.7,437.16,226.38,437.9Z" style="fill:#dbdbdb"></path><path d="M228.54,439.56c2.2-.89,4.41-1.76,6.63-2.59s4.46-1.65,6.69-2.46c1.11-.41,2.24-.79,3.37-1.16.28-.09.56-.19.87-.27s.6-.11.89-.16l1.76-.26q3.52-.48,7.08-.83c-2.34.45-4.68.85-7,1.25l-1.76.29a7.4,7.4,0,0,0-1.68.43L242,435c-2.24.77-4.47,1.58-6.72,2.33S230.8,438.82,228.54,439.56Z" style="fill:#dbdbdb"></path><path d="M230.71,441c2.24-.8,4.48-1.59,6.74-2.34s4.52-1.47,6.78-2.19c1.14-.36,2.26-.72,3.45-1l3.49-.7c2.34-.45,4.68-.88,7-1.26-2.3.59-4.61,1.14-6.93,1.67l-3.49.76c-1.11.29-2.26.68-3.39,1-2.28.68-4.54,1.41-6.82,2.08S233,440.31,230.71,441Z" style="fill:#dbdbdb"></path><path d="M264.18,432.53q3.12-1.3,6.33-2.35c.54-.17,1.07-.36,1.61-.51a14.34,14.34,0,0,1,1.67-.38l3.31-.62,6.64-1.21c2.21-.4,4.43-.75,6.64-1.13-2.19.47-4.39,1-6.59,1.42l-6.61,1.35-3.3.65a12,12,0,0,0-1.62.39l-1.61.49C268.51,431.3,266.36,432,264.18,432.53Z" style="fill:#dbdbdb"></path><path d="M262.11,430.65c2.06-.72,4.13-1.38,6.23-2a64,64,0,0,1,6.39-1.43l6.41-1.21c2.13-.41,4.28-.76,6.43-1.14-2.13.48-4.25,1-6.37,1.43l-6.39,1.36-3.2.65c-1,.23-2.09.53-3.15.79C266.36,429.69,264.24,430.2,262.11,430.65Z" style="fill:#dbdbdb"></path><path d="M260.11,429c2-.7,4.1-1.36,6.19-1.93,1-.28,2.07-.59,3.15-.82l3.2-.54,6.4-1c2.13-.35,4.28-.63,6.41-.94-2.12.41-4.23.85-6.36,1.23l-6.37,1.16-3.18.57-3.13.79C264.33,428,262.22,428.52,260.11,429Z" style="fill:#dbdbdb"></path><path d="M258.38,427.7a61.24,61.24,0,0,1,6.07-2.4,8.62,8.62,0,0,1,1.61-.4l1.62-.23,3.22-.44q6.47-.87,12.94-1.59c-4.29.71-8.58,1.37-12.88,2l-3.22.47-1.61.25a8.63,8.63,0,0,0-1.53.4C262.54,426.42,260.48,427.14,258.38,427.7Z" style="fill:#dbdbdb"></path><path d="M232.87,443c2.29-.75,4.58-1.48,6.88-2.17s4.6-1.36,6.91-2c1.16-.34,2.31-.65,3.49-.95l3.52-.78c2.35-.5,4.7-1,7.07-1.42-2.32.64-4.65,1.24-7,1.82l-3.51.83-3.46,1-6.94,1.92Q236.37,442.18,232.87,443Z" style="fill:#dbdbdb"></path><path d="M265.69,434.33c2.31-.7,4.62-1.38,6.95-2s4.65-1.26,7-1.89c1.17-.31,2.32-.6,3.52-.88l3.55-.7c2.36-.45,4.74-.88,7.12-1.27-2.34.59-4.69,1.14-7,1.67l-3.54.76-3.49.89-7,1.78C270.39,433.24,268.05,433.79,265.69,434.33Z" style="fill:#dbdbdb"></path><path d="M242.38,415.45l13.45,10.88s4.5-1.87,6.12-2.26c2.07-.49,8-1.43,8-1.43l-13.34-9.8s-6.71.49-8.24.74A58,58,0,0,0,242.38,415.45Z" style="fill:#dbdbdb"></path><path d="M271.47,422.14a44.5,44.5,0,0,1,4.86-.85,45,45,0,0,1,4.93-.36,49,49,0,0,1-9.79,1.21Z" style="fill:#dbdbdb"></path><path d="M269.5,420.56a46.41,46.41,0,0,1,4.85-.86,45.22,45.22,0,0,1,4.94-.36,42.64,42.64,0,0,1-4.86.86A44.68,44.68,0,0,1,269.5,420.56Z" style="fill:#dbdbdb"></path><path d="M267.52,419a44.5,44.5,0,0,1,4.86-.85,45.22,45.22,0,0,1,4.93-.36,42.06,42.06,0,0,1-4.85.85A44.86,44.86,0,0,1,267.52,419Z" style="fill:#dbdbdb"></path><path d="M265.55,417.39a44.11,44.11,0,0,1,4.86-.86,44.86,44.86,0,0,1,4.93-.36,42.64,42.64,0,0,1-4.86.86A44.68,44.68,0,0,1,265.55,417.39Z" style="fill:#dbdbdb"></path><path d="M263.29,416a41.88,41.88,0,0,1,4.86-.86,44.86,44.86,0,0,1,4.93-.36,45,45,0,0,1-4.86.86A47.26,47.26,0,0,1,263.29,416Z" style="fill:#dbdbdb"></path><path d="M261.19,414.4a44.5,44.5,0,0,1,4.86-.85,40.57,40.57,0,0,1,4.93-.36,49,49,0,0,1-9.79,1.21Z" style="fill:#dbdbdb"></path><path d="M258.89,412.84a43.91,43.91,0,0,1,4.85-.85,45.22,45.22,0,0,1,4.94-.36,49.28,49.28,0,0,1-9.79,1.21Z" style="fill:#dbdbdb"></path></g></svg>